<svg id="Layer_3" enable-background="new 0 0 64 64" height="512" viewBox="0 0 64 64" width="512" xmlns="http://www.w3.org/2000/svg"><path d="m46.286 10.571-1.512 2.268c-1.436 2.154-2.341 4.608-2.652 7.16l-.122.001h-40l30-18z" fill="#d7d7e2"/><circle cx="32" cy="12" fill="#b24e4a" r="4"/><ellipse cx="30.5" cy="12" fill="#ed6863" rx="2.5" ry="3.703"/><path d="m12 26h40v30h-40z" fill="#f2f2f2"/><path d="m24 38h8v18h-8z" fill="#868992"/><path d="m24 38h5v18h-5z" fill="#b3b6c2"/><path d="m32 38h8v18h-8z" fill="#868992"/><path d="m32 38h5v18h-5z" fill="#b3b6c2"/><path d="m2 56h60v6h-60z" fill="#a1a1aa"/><path d="m2 56h57v6h-57z" fill="#d7d7e2"/><path d="m20 30h24v4h-24z" fill="#b24e4a"/><path d="m20 30h21v4h-21z" fill="#ed6863"/><path d="m4 26h10v4h-10z" fill="#868992"/><path d="m4 26h7v4h-7z" fill="#b3b6c2"/><path d="m4 52h10v4h-10z" fill="#868992"/><path d="m4 52h7v4h-7z" fill="#b3b6c2"/><path d="m50 52h10v4h-10z" fill="#868992"/><path d="m50 52h7v4h-7z" fill="#b3b6c2"/><path d="m42.122 20c-.081.661-.122 1.329-.122 2 0 1.393.301 2.756.867 4h-.656-40.211v-6h40.444z" fill="#a1a1aa"/><path d="m6 30h6v22h-6z" fill="#a1a1aa"/><path d="m6 30h3v22h-3z" fill="#d7d7e2"/><path d="m52 30h6v22h-6z" fill="#a1a1aa"/><path d="m52 30h3v22h-3z" fill="#d7d7e2"/><path d="m52 32c2.561 0 5.017-1.017 6.828-2.828l.343-.343c1.812-1.812 2.829-4.268 2.829-6.829 0-3.26-.965-6.448-2.773-9.16l-7.227-10.84-7.227 10.84c-1.808 2.712-2.773 5.9-2.773 9.16 0 2.561 1.017 5.017 2.828 6.828l.343.343c1.812 1.812 4.268 2.829 6.829 2.829z" fill="#b24e4a"/><path d="m56.227 12.84-5.727-8.59-5.727 8.59c-1.808 2.712-2.773 5.9-2.773 9.16 0 2.561 1.017 5.017 2.828 6.828l.343.343c1.453 1.453 3.324 2.384 5.328 2.7 2.005-.316 3.875-1.247 5.328-2.7l.343-.343c1.813-1.811 2.83-4.267 2.83-6.828 0-3.26-.965-6.448-2.773-9.16z" fill="#ed6863"/><path d="m58 20h-4v-4h-4v4h-4v4h4v4h4v-4h4z" fill="#fff"/></svg>