<?xml version="1.0" ?><!DOCTYPE svg  PUBLIC '-//W3C//DTD SVG 1.1 Tiny//EN'  'http://www.w3.org/Graphics/SVG/1.1/DTD/svg11-tiny.dtd'><svg baseProfile="tiny" height="32px" version="1.1" viewBox="0 0 32 32" width="32px" xml:space="preserve" xmlns="http://www.w3.org/2000/svg" xmlns:xlink="http://www.w3.org/1999/xlink"><g id="Guides__x26__Forms"/><g id="Icons"><g><path d="M10.039,17.473c0.41,0.167,0.831,0.29,1.259,0.385c0.894-0.444,1.898-0.82,2.999-1.095    c-0.191-0.242-0.361-0.5-0.514-0.769C13.526,16.029,13.266,16.05,13,16.05c-0.969,0-1.883-0.238-2.692-0.651    C8.085,15.734,6.208,16.46,5,17.342V22h4v-1.658V20H7v-1.54C7.832,18.035,8.884,17.693,10.039,17.473z"/><path d="M13,14.05c0.029,0,0.056-0.008,0.086-0.009C13.031,13.719,13,13.388,13,13.05c0-0.345,0.036-0.68,0.092-1.009    c-0.031,0.001-0.06,0.009-0.092,0.009c-1.103,0-2-0.897-2-2s0.897-2,2-2c0.686,0,1.293,0.348,1.653,0.876    c0.459-0.483,0.995-0.891,1.592-1.201C15.519,6.715,14.34,6.05,13,6.05c-2.209,0-4,1.791-4,4C9,12.259,10.791,14.05,13,14.05z"/><path d="M15,13.05c0,2.209,1.791,4,4,4c2.209,0,4-1.791,4-4c0-2.209-1.791-4-4-4C16.791,9.05,15,10.841,15,13.05z M19,11.05    c1.103,0,2,0.897,2,2s-0.897,2-2,2s-2-0.897-2-2S17.897,11.05,19,11.05z"/><path d="M21.692,18.399C20.882,18.812,19.969,19.05,19,19.05c-0.969,0-1.883-0.238-2.692-0.651    c-2.223,0.335-4.099,1.061-5.308,1.943V25h16v-4.656C25.792,19.461,23.915,18.734,21.692,18.399z M25,23H13v-1.54    c0.832-0.425,1.884-0.767,3.039-0.987c0.944,0.383,1.937,0.577,2.961,0.577c1.024,0,2.017-0.194,2.961-0.576    c1.155,0.219,2.207,0.562,3.039,0.988V23z"/></g></g></svg>