<?xml version="1.0" encoding="UTF-8" standalone="no"?>
<!-- Created with Inkscape (http://www.inkscape.org/) -->

<svg
   xmlns:dc="http://purl.org/dc/elements/1.1/"
   xmlns:cc="http://creativecommons.org/ns#"
   xmlns:rdf="http://www.w3.org/1999/02/22-rdf-syntax-ns#"
   xmlns:svg="http://www.w3.org/2000/svg"
   xmlns="http://www.w3.org/2000/svg"
   xmlns:sodipodi="http://sodipodi.sourceforge.net/DTD/sodipodi-0.dtd"
   xmlns:inkscape="http://www.inkscape.org/namespaces/inkscape"
   version="1.1"
   id="svg3713"
   xml:space="preserve"
   width="592"
   height="400"
   viewBox="0 0 592 400"
   sodipodi:docname="blood-donation01.svg"
   inkscape:version="0.92.4 (5da689c313, 2019-01-14)"><metadata
     id="metadata3719"><rdf:RDF><cc:Work
         rdf:about=""><dc:format>image/svg+xml</dc:format><dc:type
           rdf:resource="http://purl.org/dc/dcmitype/StillImage" /><dc:title></dc:title></cc:Work></rdf:RDF></metadata><defs
     id="defs3717"><linearGradient
       x1="0"
       y1="0"
       x2="1"
       y2="0"
       gradientUnits="userSpaceOnUse"
       gradientTransform="matrix(0,-246.68265,-246.68265,0,249.75105,408.74316)"
       spreadMethod="pad"
       id="linearGradient3747"><stop
         style="stop-opacity:1;stop-color:#ffe7e7"
         offset="0"
         id="stop3737" /><stop
         style="stop-opacity:1;stop-color:#ffe7e7"
         offset="0.133318"
         id="stop3739" /><stop
         style="stop-opacity:1;stop-color:#ffe7e7"
         offset="0.53670565"
         id="stop3741" /><stop
         style="stop-opacity:1;stop-color:#ea9898"
         offset="0.87869"
         id="stop3743" /><stop
         style="stop-opacity:1;stop-color:#ea9898"
         offset="1"
         id="stop3745" /></linearGradient><linearGradient
       x1="0"
       y1="0"
       x2="1"
       y2="0"
       gradientUnits="userSpaceOnUse"
       gradientTransform="matrix(45.24741,-14.996469,-14.996469,-45.24741,336.13913,326.55551)"
       spreadMethod="pad"
       id="linearGradient3773"><stop
         style="stop-opacity:1;stop-color:#ffc7c8"
         offset="0"
         id="stop3763" /><stop
         style="stop-opacity:1;stop-color:#ffe6e8"
         offset="0.478918"
         id="stop3765" /><stop
         style="stop-opacity:1;stop-color:#ffb3b3"
         offset="0.48"
         id="stop3767" /><stop
         style="stop-opacity:1;stop-color:#ffb3b3"
         offset="0.999254"
         id="stop3769" /><stop
         style="stop-opacity:1;stop-color:#ffb3b3"
         offset="1"
         id="stop3771" /></linearGradient><clipPath
       clipPathUnits="userSpaceOnUse"
       id="clipPath3783"><path
         d="M 0,500 H 500 V 0 H 0 Z"
         id="path3781"
         inkscape:connector-curvature="0" /></clipPath><linearGradient
       x1="0"
       y1="0"
       x2="1"
       y2="0"
       gradientUnits="userSpaceOnUse"
       gradientTransform="matrix(33.771904,13.971127,13.971127,-33.771904,291.21906,302.27338)"
       spreadMethod="pad"
       id="linearGradient3811"><stop
         style="stop-opacity:1;stop-color:#ffc7c8"
         offset="0"
         id="stop3801" /><stop
         style="stop-opacity:1;stop-color:#ffe6e8"
         offset="0.478918"
         id="stop3803" /><stop
         style="stop-opacity:1;stop-color:#ffb3b3"
         offset="0.48"
         id="stop3805" /><stop
         style="stop-opacity:1;stop-color:#ffb3b3"
         offset="0.999254"
         id="stop3807" /><stop
         style="stop-opacity:1;stop-color:#ffb3b3"
         offset="1"
         id="stop3809" /></linearGradient><clipPath
       clipPathUnits="userSpaceOnUse"
       id="clipPath3821"><path
         d="M 0,500 H 500 V 0 H 0 Z"
         id="path3819"
         inkscape:connector-curvature="0" /></clipPath><linearGradient
       x1="0"
       y1="0"
       x2="1"
       y2="0"
       gradientUnits="userSpaceOnUse"
       gradientTransform="matrix(-14.889713,-69.600754,-69.600754,14.889713,414.26602,307.47491)"
       spreadMethod="pad"
       id="linearGradient3845"><stop
         style="stop-opacity:1;stop-color:#ffe6e8"
         offset="0"
         id="stop3839" /><stop
         style="stop-opacity:1;stop-color:#ffb3b3"
         offset="0.999254"
         id="stop3841" /><stop
         style="stop-opacity:1;stop-color:#ffb3b3"
         offset="1"
         id="stop3843" /></linearGradient><clipPath
       clipPathUnits="userSpaceOnUse"
       id="clipPath3855"><path
         d="M 0,500 H 500 V 0 H 0 Z"
         id="path3853"
         inkscape:connector-curvature="0" /></clipPath><linearGradient
       x1="0"
       y1="0"
       x2="1"
       y2="0"
       gradientUnits="userSpaceOnUse"
       gradientTransform="matrix(29.596775,33.772198,33.772198,-29.596775,61.575935,157.32423)"
       spreadMethod="pad"
       id="linearGradient3883"><stop
         style="stop-opacity:1;stop-color:#ffc7c8"
         offset="0"
         id="stop3873" /><stop
         style="stop-opacity:1;stop-color:#ffe6e8"
         offset="0.478918"
         id="stop3875" /><stop
         style="stop-opacity:1;stop-color:#ffb3b3"
         offset="0.48"
         id="stop3877" /><stop
         style="stop-opacity:1;stop-color:#ffb3b3"
         offset="0.999254"
         id="stop3879" /><stop
         style="stop-opacity:1;stop-color:#ffb3b3"
         offset="1"
         id="stop3881" /></linearGradient><clipPath
       clipPathUnits="userSpaceOnUse"
       id="clipPath3893"><path
         d="M 0,500 H 500 V 0 H 0 Z"
         id="path3891"
         inkscape:connector-curvature="0" /></clipPath><linearGradient
       x1="0"
       y1="0"
       x2="1"
       y2="0"
       gradientUnits="userSpaceOnUse"
       gradientTransform="matrix(41.5298,17.082338,17.082338,-41.5298,99.780922,275.41339)"
       spreadMethod="pad"
       id="linearGradient3921"><stop
         style="stop-opacity:1;stop-color:#ffc7c8"
         offset="0"
         id="stop3911" /><stop
         style="stop-opacity:1;stop-color:#ffe6e8"
         offset="0.478918"
         id="stop3913" /><stop
         style="stop-opacity:1;stop-color:#ffb3b3"
         offset="0.48"
         id="stop3915" /><stop
         style="stop-opacity:1;stop-color:#ffb3b3"
         offset="0.999254"
         id="stop3917" /><stop
         style="stop-opacity:1;stop-color:#ffb3b3"
         offset="1"
         id="stop3919" /></linearGradient><clipPath
       clipPathUnits="userSpaceOnUse"
       id="clipPath3931"><path
         d="M 0,500 H 500 V 0 H 0 Z"
         id="path3929"
         inkscape:connector-curvature="0" /></clipPath><linearGradient
       x1="0"
       y1="0"
       x2="1"
       y2="0"
       gradientUnits="userSpaceOnUse"
       gradientTransform="matrix(92.570183,-77.444344,-77.444344,-92.570183,42.396591,272.35727)"
       spreadMethod="pad"
       id="linearGradient3955"><stop
         style="stop-opacity:1;stop-color:#ffe6e8"
         offset="0"
         id="stop3949" /><stop
         style="stop-opacity:1;stop-color:#ffb3b3"
         offset="0.999254"
         id="stop3951" /><stop
         style="stop-opacity:1;stop-color:#ffb3b3"
         offset="1"
         id="stop3953" /></linearGradient><clipPath
       clipPathUnits="userSpaceOnUse"
       id="clipPath3965"><path
         d="M 0,500 H 500 V 0 H 0 Z"
         id="path3963"
         inkscape:connector-curvature="0" /></clipPath><clipPath
       clipPathUnits="userSpaceOnUse"
       id="clipPath3977"><path
         d="M 60.357,403.555 V 199.979 h 0.641 c 1.837,-15.731 7.676,-30.861 17.72,-43.127 v 0 c 18.049,-22.043 47.396,-32.862 75.886,-32.889 v 0 c 12.061,-0.011 24.064,1.717 36.051,3.447 v 0 c 15.268,2.203 30.509,4.406 45.808,3.012 v 0 c 31.552,-2.877 60.183,-20.769 91.689,-24.106 v 0 c 45.949,-4.865 93.198,26.013 107.189,70.05 v 0 c 3.659,11.523 5.216,24.014 2.235,35.732 v 0 c -0.768,3.024 -1.822,5.922 -3.115,8.7 v 0 182.757 z"
         id="path3975"
         inkscape:connector-curvature="0" /></clipPath><linearGradient
       x1="0"
       y1="0"
       x2="1"
       y2="0"
       gradientUnits="userSpaceOnUse"
       gradientTransform="matrix(-74.991844,-102.1628,-102.1628,74.991844,323.00665,241.50082)"
       spreadMethod="pad"
       id="linearGradient4013"><stop
         style="stop-opacity:1;stop-color:#624cd5"
         offset="0"
         id="stop4007" /><stop
         style="stop-opacity:1;stop-color:#2d2796"
         offset="0.999254"
         id="stop4009" /><stop
         style="stop-opacity:1;stop-color:#2d2796"
         offset="1"
         id="stop4011" /></linearGradient><clipPath
       clipPathUnits="userSpaceOnUse"
       id="clipPath4023"><path
         d="M 60.357,403.555 V 199.979 h 0.641 c 1.837,-15.731 7.676,-30.861 17.72,-43.127 v 0 c 18.049,-22.043 47.396,-32.862 75.886,-32.889 v 0 c 12.061,-0.011 24.064,1.717 36.051,3.447 v 0 c 15.268,2.203 30.509,4.406 45.808,3.012 v 0 c 31.552,-2.877 60.183,-20.769 91.689,-24.106 v 0 c 45.949,-4.865 93.198,26.013 107.189,70.05 v 0 c 3.659,11.523 5.216,24.014 2.235,35.732 v 0 c -0.768,3.024 -1.822,5.922 -3.115,8.7 v 0 182.757 z"
         id="path4021"
         inkscape:connector-curvature="0" /></clipPath><linearGradient
       x1="0"
       y1="0"
       x2="1"
       y2="0"
       gradientUnits="userSpaceOnUse"
       gradientTransform="matrix(24.604711,-31.461761,-31.461761,-24.604711,328.93915,318.01923)"
       spreadMethod="pad"
       id="linearGradient4107"><stop
         style="stop-opacity:1;stop-color:#483889"
         offset="0"
         id="stop4097" /><stop
         style="stop-opacity:1;stop-color:#483889"
         offset="0.62112526"
         id="stop4099" /><stop
         style="stop-opacity:1;stop-color:#3a2a6b"
         offset="0.992685"
         id="stop4101" /><stop
         style="stop-opacity:1;stop-color:#3a2a6b"
         offset="0.9966438"
         id="stop4103" /><stop
         style="stop-opacity:1;stop-color:#3a2a6b"
         offset="1"
         id="stop4105" /></linearGradient><linearGradient
       x1="0"
       y1="0"
       x2="1"
       y2="0"
       gradientUnits="userSpaceOnUse"
       gradientTransform="matrix(-113.46089,28.197382,28.197382,113.46089,194.4035,113.34362)"
       spreadMethod="pad"
       id="linearGradient4129"><stop
         style="stop-opacity:1;stop-color:#ffffff"
         offset="0"
         id="stop4123" /><stop
         style="stop-opacity:1;stop-color:#d8e7ec"
         offset="0.998526"
         id="stop4125" /><stop
         style="stop-opacity:1;stop-color:#d8e7ec"
         offset="1"
         id="stop4127" /></linearGradient><clipPath
       clipPathUnits="userSpaceOnUse"
       id="clipPath4139"><path
         d="M 60.357,403.555 V 199.979 h 0.641 c 1.837,-15.731 7.676,-30.861 17.72,-43.127 v 0 c 18.049,-22.043 47.396,-32.862 75.886,-32.889 v 0 c 12.061,-0.011 24.064,1.717 36.051,3.447 v 0 c 15.268,2.203 30.509,4.406 45.808,3.012 v 0 c 31.552,-2.877 60.183,-20.769 91.689,-24.106 v 0 c 45.949,-4.865 93.198,26.013 107.189,70.05 v 0 c 3.659,11.523 5.216,24.014 2.235,35.732 v 0 c -0.768,3.024 -1.822,5.922 -3.115,8.7 v 0 182.757 z"
         id="path4137"
         inkscape:connector-curvature="0" /></clipPath><linearGradient
       x1="0"
       y1="0"
       x2="1"
       y2="0"
       gradientUnits="userSpaceOnUse"
       gradientTransform="matrix(-74.895348,-132.03772,-132.03772,74.895348,176.8222,245.89067)"
       spreadMethod="pad"
       id="linearGradient4163"><stop
         style="stop-opacity:1;stop-color:#ffffff"
         offset="0"
         id="stop4157" /><stop
         style="stop-opacity:1;stop-color:#d8e7ec"
         offset="0.998526"
         id="stop4159" /><stop
         style="stop-opacity:1;stop-color:#d8e7ec"
         offset="1"
         id="stop4161" /></linearGradient><clipPath
       clipPathUnits="userSpaceOnUse"
       id="clipPath4173"><path
         d="M 60.357,403.555 V 199.979 h 0.641 c 1.837,-15.731 7.676,-30.861 17.72,-43.127 v 0 c 18.049,-22.043 47.396,-32.862 75.886,-32.889 v 0 c 12.061,-0.011 24.064,1.717 36.051,3.447 v 0 c 15.268,2.203 30.509,4.406 45.808,3.012 v 0 c 31.552,-2.877 60.183,-20.769 91.689,-24.106 v 0 c 45.949,-4.865 93.198,26.013 107.189,70.05 v 0 c 3.659,11.523 5.216,24.014 2.235,35.732 v 0 c -0.768,3.024 -1.822,5.922 -3.115,8.7 v 0 182.757 z"
         id="path4171"
         inkscape:connector-curvature="0" /></clipPath><linearGradient
       x1="0"
       y1="0"
       x2="1"
       y2="0"
       gradientUnits="userSpaceOnUse"
       gradientTransform="matrix(-36.704872,16.621075,16.621075,36.704872,173.42429,241.05103)"
       spreadMethod="pad"
       id="linearGradient4213"><stop
         style="stop-opacity:1;stop-color:#ffffff"
         offset="0"
         id="stop4207" /><stop
         style="stop-opacity:1;stop-color:#d8e7ec"
         offset="0.998526"
         id="stop4209" /><stop
         style="stop-opacity:1;stop-color:#d8e7ec"
         offset="1"
         id="stop4211" /></linearGradient><clipPath
       clipPathUnits="userSpaceOnUse"
       id="clipPath4223"><path
         d="M 60.357,403.555 V 199.979 h 0.641 c 1.837,-15.731 7.676,-30.861 17.72,-43.127 v 0 c 18.049,-22.043 47.396,-32.862 75.886,-32.889 v 0 c 12.061,-0.011 24.064,1.717 36.051,3.447 v 0 c 15.268,2.203 30.509,4.406 45.808,3.012 v 0 c 31.552,-2.877 60.183,-20.769 91.689,-24.106 v 0 c 45.949,-4.865 93.198,26.013 107.189,70.05 v 0 c 3.659,11.523 5.216,24.014 2.235,35.732 v 0 c -0.768,3.024 -1.822,5.922 -3.115,8.7 v 0 182.757 z"
         id="path4221"
         inkscape:connector-curvature="0" /></clipPath><linearGradient
       x1="0"
       y1="0"
       x2="1"
       y2="0"
       gradientUnits="userSpaceOnUse"
       gradientTransform="matrix(-24.604713,-28.234917,-28.234917,24.604713,205.33237,334.59714)"
       spreadMethod="pad"
       id="linearGradient4263"><stop
         style="stop-opacity:1;stop-color:#3a2a6b"
         offset="0"
         id="stop4253" /><stop
         style="stop-opacity:1;stop-color:#3a2a6b"
         offset="0.04558734"
         id="stop4255" /><stop
         style="stop-opacity:1;stop-color:#1d103e"
         offset="0.992365"
         id="stop4257" /><stop
         style="stop-opacity:1;stop-color:#1d103e"
         offset="0.99649698"
         id="stop4259" /><stop
         style="stop-opacity:1;stop-color:#1d103e"
         offset="1"
         id="stop4261" /></linearGradient><clipPath
       clipPathUnits="userSpaceOnUse"
       id="clipPath4273"><path
         d="M 60.357,403.555 V 199.979 h 0.641 c 1.837,-15.731 7.676,-30.861 17.72,-43.127 v 0 c 18.049,-22.043 47.396,-32.862 75.886,-32.889 v 0 c 12.061,-0.011 24.064,1.717 36.051,3.447 v 0 c 15.268,2.203 30.509,4.406 45.808,3.012 v 0 c 31.552,-2.877 60.183,-20.769 91.689,-24.106 v 0 c 45.949,-4.865 93.198,26.013 107.189,70.05 v 0 c 3.659,11.523 5.216,24.014 2.235,35.732 v 0 c -0.768,3.024 -1.822,5.922 -3.115,8.7 v 0 182.757 z"
         id="path4271"
         inkscape:connector-curvature="0" /></clipPath><linearGradient
       x1="0"
       y1="0"
       x2="1"
       y2="0"
       gradientUnits="userSpaceOnUse"
       gradientTransform="matrix(31.934145,55.70734,55.70734,-31.934145,120.50639,248.97409)"
       spreadMethod="pad"
       id="linearGradient4301"><stop
         style="stop-opacity:1;stop-color:#3a2a6b"
         offset="0"
         id="stop4291" /><stop
         style="stop-opacity:1;stop-color:#3a2a6b"
         offset="0.04558734"
         id="stop4293" /><stop
         style="stop-opacity:1;stop-color:#1d103e"
         offset="0.992365"
         id="stop4295" /><stop
         style="stop-opacity:1;stop-color:#1d103e"
         offset="0.99649698"
         id="stop4297" /><stop
         style="stop-opacity:1;stop-color:#1d103e"
         offset="1"
         id="stop4299" /></linearGradient><clipPath
       clipPathUnits="userSpaceOnUse"
       id="clipPath4311"><path
         d="M 60.357,403.555 V 199.979 h 0.641 c 1.837,-15.731 7.676,-30.861 17.72,-43.127 v 0 c 18.049,-22.043 47.396,-32.862 75.886,-32.889 v 0 c 12.061,-0.011 24.064,1.717 36.051,3.447 v 0 c 15.268,2.203 30.509,4.406 45.808,3.012 v 0 c 31.552,-2.877 60.183,-20.769 91.689,-24.106 v 0 c 45.949,-4.865 93.198,26.013 107.189,70.05 v 0 c 3.659,11.523 5.216,24.014 2.235,35.732 v 0 c -0.768,3.024 -1.822,5.922 -3.115,8.7 v 0 182.757 z"
         id="path4309"
         inkscape:connector-curvature="0" /></clipPath><clipPath
       clipPathUnits="userSpaceOnUse"
       id="clipPath4363"><path
         d="M 0,500 H 500 V 0 H 0 Z"
         id="path4361"
         inkscape:connector-curvature="0" /></clipPath></defs><sodipodi:namedview
     pagecolor="#ffffff"
     bordercolor="#666666"
     borderopacity="1"
     objecttolerance="10"
     gridtolerance="10"
     guidetolerance="10"
     inkscape:pageopacity="0"
     inkscape:pageshadow="2"
     inkscape:window-width="1920"
     inkscape:window-height="1017"
     id="namedview3715"
     showgrid="false"
     inkscape:zoom="1.272"
     inkscape:cx="333.33334"
     inkscape:cy="238.99372"
     inkscape:window-x="-8"
     inkscape:window-y="-8"
     inkscape:window-maximized="1"
     inkscape:current-layer="g3721" /><g
     id="g3721"
     inkscape:groupmode="layer"
     inkscape:label="2738491"
     transform="matrix(1.3333333,0,0,-1.3333333,0,399.99999)"><g
       id="g3725"
       transform="translate(-28.891511,-103.18397)"><g
         id="g3727"><g
           id="g3733"><g
             id="g3735"><path
               d="m 216.152,396.021 c -18.298,-3.639 -36.103,-15.046 -42.476,-32.579 v 0 c -4.892,-13.455 -3.132,-29.915 -12.84,-40.437 v 0 c -6.068,-6.576 -15.198,-9.105 -23.604,-12.169 v 0 C 107.047,299.834 80.383,277.461 67.813,247.894 v 0 c -12.57,-29.567 -9.45,-66.184 10.905,-91.042 v 0 c 18.049,-22.043 47.396,-32.862 75.886,-32.889 v 0 c 12.061,-0.011 24.064,1.717 36.051,3.447 v 0 c 15.268,2.203 30.509,4.406 45.808,3.012 v 0 c 31.552,-2.877 60.183,-20.769 91.689,-24.106 v 0 c 45.949,-4.865 93.198,26.013 107.189,70.05 v 0 c 3.659,11.523 5.216,24.014 2.235,35.732 v 0 c -5.096,20.035 -22.528,34.679 -41.006,43.95 v 0 c -18.478,9.271 -38.761,14.571 -57.123,24.071 v 0 c -5.122,2.649 -10.257,5.785 -13.416,10.611 v 0 c -6.789,10.371 -2.253,23.965 -0.229,36.195 v 0 c 2.161,13.058 0.996,26.982 -5.29,38.63 v 0 c -7.926,14.681 -24.263,23.9 -40.307,26.617 v 0 c -14.957,2.534 -30.339,5.554 -45.626,5.554 v 0 c -6.17,0 -12.322,-0.491 -18.427,-1.705"
               style="fill:url(#linearGradient3747);stroke:none"
               id="path3749"
               inkscape:connector-curvature="0" /></g></g></g></g><g
       id="g3751"
       transform="translate(-28.891511,-103.18397)"><g
         id="g3753"><g
           id="g3759"><g
             id="g3761"><path
               d="m 380.14,392.305 c -5.146,-3.942 -10.007,-8.26 -14.513,-12.892 v 0 l -1.729,-1.791 -0.21,-0.212 c -3.346,-3.563 -6.495,-7.293 -9.449,-11.182 v 0 c -7.603,-9.985 -13.891,-20.972 -18.698,-32.575 v 0 c -0.398,-0.947 -0.776,-1.908 -1.154,-2.867 v 0 l -10e-4,-0.01 c -2.968,-7.593 -5.296,-15.435 -6.944,-23.419 v 0 c -2.169,-10.527 -3.572,-21.786 -2.831,-32.547 v 0 c 0.206,-2.931 4.391,-20.882 7.727,-26.516 v 0 c 0.539,-0.922 1.066,-1.523 1.547,-1.656 v 0 c 0.194,-0.069 0.376,-0.044 0.556,0.049 v 0 c 9.389,5.204 17.271,12.733 24.59,20.583 v 0 c 6.273,6.721 12.269,13.839 16.578,21.932 v 0 l 0.011,0.009 c 0.41,0.756 0.802,1.534 1.174,2.314 v 0 c 0.247,0.5 0.473,1.011 0.701,1.523 v 0 c 3.526,7.884 5.406,16.439 6.705,24.997 v 0 c 1.765,11.608 2.513,23.388 2.122,35.131 v 0 c -0.029,0.797 -0.056,1.592 -0.096,2.379 v 0 c -0.527,11.343 -2.125,22.624 -4.902,33.63 v 0 c -0.28,1.12 -0.571,2.241 -0.881,3.354 v 0 c -0.098,-0.082 -0.205,-0.152 -0.303,-0.234"
               style="fill:url(#linearGradient3773);stroke:none"
               id="path3775"
               inkscape:connector-curvature="0" /></g></g></g></g><g
       id="g3777"
       transform="translate(-28.891511,-103.18397)"><g
         id="g3779"
         clip-path="url(#clipPath3783)"><g
           id="g3785"
           transform="translate(334.3873,330.7858)"><path
             d="m 0,0 -0.001,-0.01 c 4.346,-13.638 8.094,-27.443 11.234,-41.424 0.057,-0.256 0.202,-0.43 0.362,-0.555 -2.4,-7.182 -4.817,-14.353 -7.244,-21.524 -0.245,-0.148 -0.49,-0.306 -0.745,-0.454 -0.764,-0.463 -0.586,-1.493 -0.026,-1.835 -1.88,-5.563 -3.76,-11.126 -5.63,-16.69 0.539,-0.922 1.067,-1.523 1.547,-1.656 2.17,6.44 4.351,12.879 6.532,19.329 12.056,7.27 23.783,15.013 35.193,23.236 l 0.011,0.009 c 0.41,0.756 0.802,1.533 1.173,2.313 0.247,0.5 0.474,1.011 0.701,1.523 -11.67,-8.561 -23.707,-16.606 -36.079,-24.15 5.245,15.54 10.471,31.092 15.512,46.7 2.543,7.893 4.929,15.819 7.296,23.758 0.099,0.092 0.196,0.173 0.285,0.265 0.174,0.145 0.249,0.319 0.296,0.496 7.454,3.913 14.636,8.262 21.518,13.06 -0.029,0.796 -0.057,1.591 -0.096,2.378 -6.727,-4.752 -13.746,-9.076 -21.037,-12.963 1.194,3.979 2.389,7.967 3.614,11.953 3.582,11.704 8.998,22.93 12.521,34.64 l -0.881,3.353 C 42.661,49.459 36.583,37.579 32.826,25.379 32.158,23.22 31.511,21.06 30.853,18.9 c 0.716,9.896 0.662,19.812 0.386,29.727 l -1.728,-1.791 -0.21,-0.212 C 29.606,34.828 29.54,23.026 28.142,11.264 28.105,10.966 28.194,10.737 28.35,10.563 28.337,10.534 28.324,10.505 28.321,10.475 28.311,10.466 28.29,10.458 28.28,10.458 27.732,10.177 27.559,9.479 27.876,8.999 25.527,1.149 23.18,-6.691 20.666,-14.486 18.042,-22.602 15.369,-30.704 12.667,-38.792 9.435,-24.733 5.603,-10.85 1.153,2.868 Z"
             style="fill:#ffe6e8;fill-opacity:1;fill-rule:nonzero;stroke:none"
             id="path3787"
             inkscape:connector-curvature="0" /></g></g></g><g
       id="g3789"
       transform="translate(-28.891511,-103.18397)"><g
         id="g3791"><g
           id="g3797"><g
             id="g3799"><path
               d="m 283.806,362.477 c -1.012,-4.866 -1.668,-9.808 -1.963,-14.754 v 0 l -0.105,-1.906 -0.015,-0.228 c -0.157,-3.744 -0.115,-7.487 0.119,-11.224 v 0 c 0.592,-9.603 2.448,-19.13 5.473,-28.272 v 0 c 0.244,-0.75 0.506,-1.496 0.768,-2.243 v 0 l 0.003,-0.006 c 2.084,-5.894 4.661,-11.61 7.706,-17.07 v 0 c 4.016,-7.195 8.845,-14.432 14.667,-20.305 v 0 c 1.588,-1.598 13.013,-9.918 17.771,-11.516 v 0 c 0.775,-0.266 1.381,-0.348 1.728,-0.186 v 0 c 0.147,0.058 0.241,0.163 0.298,0.308 v 0 c 2.84,7.724 3.642,16.043 3.954,24.266 v 0 c 0.273,7.043 0.187,14.18 -1.368,21.035 v 0 l 0.001,0.011 c -0.141,0.644 -0.303,1.291 -0.478,1.93 v 0 c -0.107,0.413 -0.233,0.825 -0.357,1.235 v 0 c -1.904,6.342 -5.099,12.249 -8.634,17.866 v 0 c -4.792,7.621 -10.262,14.831 -16.373,21.45 v 0 c -0.416,0.448 -0.832,0.895 -1.248,1.333 v 0 c -5.991,6.318 -12.571,12.063 -19.697,17.058 v 0 c -0.724,0.51 -1.454,1.015 -2.191,1.505 v 0 c -0.017,-0.096 -0.043,-0.191 -0.059,-0.287"
               style="fill:url(#linearGradient3811);stroke:none"
               id="path3813"
               inkscape:connector-curvature="0" /></g></g></g></g><g
       id="g3815"
       transform="translate(-28.891511,-103.18397)"><g
         id="g3817"
         clip-path="url(#clipPath3821)"><g
           id="g3823"
           transform="translate(288.0826,303.8503)"><path
             d="m 0,0 0.004,-0.006 c 9.356,-5.737 18.449,-11.869 27.277,-18.409 0.161,-0.12 0.333,-0.148 0.488,-0.141 2.208,-5.37 4.398,-10.743 6.582,-16.12 -0.068,-0.209 -0.13,-0.424 -0.205,-0.637 -0.211,-0.652 0.409,-1.161 0.906,-1.078 1.696,-4.17 3.392,-8.34 5.095,-12.506 0.775,-0.266 1.382,-0.349 1.728,-0.186 -1.968,4.825 -3.929,9.654 -5.895,14.49 3.353,10.26 6.279,20.63 8.779,31.119 l 0.002,0.011 c -0.142,0.644 -0.304,1.291 -0.479,1.93 -0.107,0.413 -0.232,0.824 -0.356,1.235 -2.484,-10.816 -5.436,-21.516 -8.835,-32.094 -4.743,11.646 -9.504,23.29 -14.401,34.873 -2.478,5.855 -5.066,11.65 -7.67,17.443 0.01,0.103 0.027,0.199 0.032,0.297 0.028,0.171 -0.015,0.31 -0.076,0.436 2.364,6.006 4.352,12.128 5.942,18.361 -0.416,0.447 -0.831,0.895 -1.248,1.332 -1.523,-6.128 -3.429,-12.155 -5.712,-18.064 -1.3,2.907 -2.605,5.82 -3.892,8.747 C 4.28,39.62 1.797,48.849 -2.026,57.409 l -2.192,1.505 C -0.027,50.079 2.398,40.14 6.332,31.177 7.025,29.589 7.732,28.011 8.433,26.429 3.89,32.53 -1.11,38.257 -6.239,43.873 L -6.345,41.967 -6.36,41.739 c 6.089,-6.692 11.964,-13.574 17.047,-21.1 0.127,-0.192 0.293,-0.28 0.471,-0.304 0.007,-0.023 0.015,-0.045 0.029,-0.064 C 11.185,20.26 11.177,20.245 11.17,20.24 10.993,19.802 11.242,19.311 11.667,19.191 14.238,13.459 16.805,7.733 19.251,1.95 21.796,-4.075 24.305,-10.116 26.79,-16.164 17.868,-9.625 8.688,-3.489 -0.768,2.242 Z"
             style="fill:#ffe6e8;fill-opacity:1;fill-rule:nonzero;stroke:none"
             id="path3825"
             inkscape:connector-curvature="0" /></g></g></g><g
       id="g3827"
       transform="translate(-28.891511,-103.18397)"><g
         id="g3829"><g
           id="g3835"><g
             id="g3837"><path
               d="m 466.843,323.458 c -0.022,-0.008 -0.034,-0.027 -0.054,-0.036 v 0 c -9.371,-4.792 -20.275,-6.213 -30.959,-6.66 v 0 c -0.948,-0.055 -1.895,-0.079 -2.83,-0.105 v 0 l -10e-4,-0.01 c -0.071,0.006 -0.131,0.002 -0.202,-0.002 v 0 c -5.878,-0.169 -11.812,-0.154 -17.7,-0.423 v 0 c 0,0 -0.01,0.001 -0.011,-0.009 v 0 c -1.513,-0.064 -3.017,-0.148 -4.513,-0.273 v 0 h -0.01 c -5.743,-0.432 -11.422,-1.273 -16.935,-2.942 v 0 c -3.179,-0.956 -6.53,-2.47 -9.9,-4.424 v 0 c -1.462,-0.841 -2.933,-1.772 -4.379,-2.776 v 0 c -18.37,-12.682 -34.688,-37.037 -20.029,-53.669 v 0 c 0.436,-0.502 0.894,-0.985 1.383,-1.472 v 0 c 1.806,-1.769 4.005,-3.445 6.616,-4.988 v 0 c 4.489,-2.646 9.642,-3.947 14.798,-4.786 v 0 c 5.442,-0.885 11.029,-1.281 16.47,-0.408 v 0 c 10.208,1.613 19.172,7.569 26.289,15.186 v 0 l 0.01,-0.001 c 0.903,0.983 1.787,1.978 2.633,3.005 v 0 l 0.01,-0.001 c 0.733,0.887 1.448,1.797 2.133,2.709 v 0 c 3.162,4.201 5.889,8.684 8.405,13.294 v 0 c 0.371,0.66 0.733,1.33 1.087,2.011 v 0 c 3.173,5.978 6.062,12.152 9.131,18.2 v 0 c 0.426,0.834 0.855,1.669 1.291,2.503 v 0 c 0.391,0.757 0.789,1.514 1.2,2.271 v 0 c 3.829,7.123 8.14,14.032 13.537,19.949 v 0 c 1.974,2.171 4.088,4.217 6.386,6.077 v 0 c -1.249,-0.81 -2.541,-1.557 -3.856,-2.22"
               style="fill:url(#linearGradient3845);stroke:none"
               id="path3847"
               inkscape:connector-curvature="0" /></g></g></g></g><g
       id="g3849"
       transform="translate(-28.891511,-103.18397)"><g
         id="g3851"
         clip-path="url(#clipPath3855)"><g
           id="g3857"
           transform="translate(359.3199,252.1286)"><path
             d="m 0,0 c 1.812,2.275 3.689,4.485 5.641,6.617 -0.107,14.77 3.781,29.289 11.254,42.046 0.951,1.63 1.997,3.313 3.134,5.007 l 4.379,2.776 C 21.826,52.995 19.597,49.452 17.74,46.146 11.331,34.708 7.925,21.843 7.644,8.775 c 3.805,3.983 7.838,7.714 12.083,11.225 -0.019,0.122 -0.027,0.263 0.007,0.411 4.265,18.129 15.868,33.795 31.509,43.401 l 0.01,-10e-4 c 1.497,0.126 3.001,0.21 4.514,0.273 -16.328,-8.751 -28.646,-24 -33.569,-42.079 7.117,5.63 14.784,10.668 22.882,15.266 6.003,3.411 12.057,6.718 18.137,9.992 0.005,0.05 -0.002,0.091 0.024,0.149 2.447,6.395 5.973,12.16 10.438,17.107 l 0.001,0.009 2.831,0.105 C 72.07,60.065 68.49,54.697 65.931,48.724 c 5.14,2.767 10.291,5.523 15.432,8.3 8.565,4.645 17.768,8.912 26.106,14.27 0.02,0.008 3.888,2.248 3.91,2.256 l -6.386,-6.078 C 98.651,63.75 91.981,60.509 85.603,57.051 79.341,53.663 73.071,50.295 66.8,46.908 c 2.528,-1.796 6.761,-1.296 9.549,-1.218 3.723,0.094 7.442,0.46 11.112,1.071 1.346,0.219 2.675,0.48 3.995,0.762 l -1.2,-2.271 C 87.72,44.739 85.165,44.358 82.581,44.101 77.696,43.61 68.896,41.908 64.888,45.866 c -4.773,-2.579 -9.525,-5.16 -14.272,-7.783 -3.625,-2 -7.167,-4.079 -10.626,-6.235 12.796,-5.047 26.3,-7.496 39.844,-7.299 l -1.087,-2.01 C 65.026,22.478 51.345,25.075 38.443,30.292 38.249,30.369 38.12,30.491 38.021,30.631 29.699,25.331 21.912,19.51 14.799,12.936 20.297,12.116 25.152,9.627 30.358,7.579 35.729,5.455 41.389,4.088 47.152,3.656 54.374,3.121 61.575,4.024 68.199,6.537 L 68.209,6.536 67.884,6.164 65.566,3.532 65.557,3.533 C 60.996,2.179 56.227,1.517 51.366,1.506 45.651,1.493 39.938,2.372 34.473,4.012 27.163,6.222 20.613,10.511 12.889,11.141 8.809,7.224 4.965,3.044 1.383,-1.471 Z"
             style="fill:#ffe6e8;fill-opacity:1;fill-rule:nonzero;stroke:none"
             id="path3859"
             inkscape:connector-curvature="0" /></g></g></g><g
       id="g3861"
       transform="translate(-28.891511,-103.18397)"><g
         id="g3863"><g
           id="g3869"><g
             id="g3871"><path
               d="m 32.884,210.802 c 1.203,-4.679 2.748,-9.27 4.61,-13.712 v 0 l 0.725,-1.707 0.084,-0.205 c 1.468,-3.334 3.108,-6.581 4.914,-9.741 v 0 c 4.631,-8.124 10.333,-15.639 16.89,-22.319 v 0 c 0.533,-0.549 1.081,-1.088 1.629,-1.627 v 0 l 0.007,-0.003 c 4.342,-4.249 9.041,-8.132 14.036,-11.589 v 0 c 6.587,-4.556 13.901,-8.801 21.496,-11.43 v 0 c 2.07,-0.712 15.601,-3.075 20.438,-2.43 v 0 c 0.789,0.1 1.354,0.287 1.586,0.576 v 0 c 0.103,0.115 0.141,0.247 0.128,0.397 v 0 c -0.831,7.956 -3.697,15.556 -6.948,22.865 v 0 c -2.78,6.26 -5.913,12.449 -10.208,17.763 v 0 l -0.003,0.01 c -0.399,0.501 -0.818,0.997 -1.245,1.48 v 0 c -0.271,0.314 -0.555,0.619 -0.839,0.923 v 0 c -4.379,4.717 -9.699,8.501 -15.189,11.886 v 0 c -7.446,4.595 -15.307,8.541 -23.475,11.697 v 0 c -0.554,0.211 -1.107,0.425 -1.659,0.627 v 0 c -7.934,2.945 -16.135,5.138 -24.493,6.441 v 0 c -0.849,0.135 -1.703,0.262 -2.557,0.374 v 0 c 0.028,-0.091 0.045,-0.185 0.073,-0.276"
               style="fill:url(#linearGradient3883);stroke:none"
               id="path3885"
               inkscape:connector-curvature="0" /></g></g></g></g><g
       id="g3887"
       transform="translate(-28.891511,-103.18397)"><g
         id="g3889"
         clip-path="url(#clipPath3893)"><g
           id="g3895"
           transform="translate(61.7365,161.4909)"><path
             d="m 0,0 0.006,-0.003 c 10.62,-0.996 21.181,-2.449 31.684,-4.371 0.192,-0.036 0.354,0.013 0.486,0.086 4.227,-3.739 8.44,-7.487 12.65,-11.242 0.03,-0.211 0.068,-0.426 0.094,-0.643 0.095,-0.66 0.853,-0.838 1.251,-0.553 3.267,-2.911 6.535,-5.822 9.805,-8.726 0.79,0.1 1.355,0.287 1.587,0.577 -3.784,3.366 -7.564,6.739 -11.352,10.115 -1.472,10.388 -3.363,20.687 -5.676,30.908 l -0.003,0.011 c -0.4,0.501 -0.819,0.997 -1.245,1.48 -0.271,0.314 -0.556,0.619 -0.84,0.923 C 40.916,8.063 42.925,-2.536 44.492,-13.221 35.364,-5.093 26.222,3.024 16.986,11.031 12.315,15.076 7.574,19.022 2.82,22.96 2.786,23.055 2.758,23.146 2.721,23.233 2.672,23.395 2.575,23.497 2.468,23.58 c -0.511,6.253 -1.4,12.446 -2.684,18.565 -0.555,0.211 -1.108,0.424 -1.659,0.627 1.298,-5.999 2.217,-12.073 2.757,-18.206 -2.38,1.979 -4.767,3.961 -7.143,5.963 -6.983,5.868 -13.103,12.856 -20.107,18.685 l -2.485,0.098 c 7.442,-5.912 13.745,-13.268 21.017,-19.401 1.286,-1.088 2.579,-2.161 3.868,-3.242 -6.578,3.376 -13.394,6.229 -20.274,8.931 l 0.724,-1.708 0.084,-0.205 C -15.255,30.457 -7.18,26.972 0.479,22.584 0.672,22.472 0.855,22.467 1.02,22.521 1.037,22.505 1.053,22.487 1.072,22.477 1.075,22.467 1.075,22.45 1.071,22.443 1.105,21.986 1.532,21.664 1.955,21.741 6.653,17.843 11.346,13.947 15.958,9.95 20.76,5.785 25.537,1.59 30.297,-2.62 19.712,-0.739 9.074,0.68 -1.63,1.627 Z"
             style="fill:#ffe6e8;fill-opacity:1;fill-rule:nonzero;stroke:none"
             id="path3897"
             inkscape:connector-curvature="0" /></g></g></g><g
       id="g3899"
       transform="translate(-28.891511,-103.18397)"><g
         id="g3901"><g
           id="g3907"><g
             id="g3909"><path
               d="m 97.871,336.073 c -1.004,-4.726 -1.663,-9.526 -1.97,-14.332 v 0 l -0.11,-1.851 -0.017,-0.223 c -0.167,-3.637 -0.143,-7.276 0.07,-10.909 v 0 c 0.533,-9.336 2.297,-18.603 5.197,-27.502 v 0 c 0.235,-0.729 0.486,-1.456 0.737,-2.182 v 0 l 0.005,-0.006 c 1.999,-5.737 4.48,-11.305 7.416,-16.623 v 0 c 3.873,-7.011 8.534,-14.065 14.169,-19.798 v 0 c 1.536,-1.56 12.604,-9.695 17.222,-11.268 v 0 c 0.752,-0.261 1.342,-0.345 1.678,-0.188 v 0 c 0.143,0.056 0.235,0.159 0.291,0.298 v 0 c 2.795,7.495 3.608,15.577 3.948,23.567 v 0 c 0.295,6.846 0.241,13.781 -1.242,20.451 v 0 l 0.002,0.01 c -0.135,0.627 -0.29,1.257 -0.457,1.878 v 0 c -0.103,0.403 -0.222,0.803 -0.341,1.203 v 0 c -1.824,6.171 -4.904,11.927 -8.316,17.399 v 0 c -4.625,7.428 -9.911,14.46 -15.823,20.919 v 0 c -0.401,0.437 -0.803,0.873 -1.206,1.3 v 0 c -5.796,6.167 -12.166,11.778 -19.072,16.663 v 0 c -0.701,0.499 -1.407,0.993 -2.123,1.473 v 0 c -0.016,-0.095 -0.042,-0.187 -0.058,-0.279"
               style="fill:url(#linearGradient3921);stroke:none"
               id="path3923"
               inkscape:connector-curvature="0" /></g></g></g></g><g
       id="g3925"
       transform="translate(-28.891511,-103.18397)"><g
         id="g3927"
         clip-path="url(#clipPath3931)"><g
           id="g3933"
           transform="translate(101.778,279.0739)"><path
             d="m 0,0 0.004,-0.006 c 9.069,-5.615 17.881,-11.615 26.433,-18.008 0.156,-0.117 0.323,-0.146 0.473,-0.139 2.123,-5.228 4.229,-10.46 6.329,-15.696 -0.067,-0.202 -0.129,-0.411 -0.201,-0.617 -0.209,-0.633 0.391,-1.13 0.875,-1.052 1.631,-4.06 3.262,-8.121 4.899,-12.176 0.752,-0.262 1.342,-0.346 1.678,-0.189 -1.891,4.697 -3.777,9.4 -5.667,14.109 3.302,9.958 6.189,20.023 8.664,30.207 l 0.002,0.01 C 43.354,-2.93 43.2,-2.3 43.032,-1.678 42.93,-1.276 42.81,-0.876 42.691,-0.477 40.232,-10.979 37.316,-21.365 33.968,-31.631 29.407,-20.292 24.83,-8.955 20.12,2.324 c -2.384,5.7 -4.874,11.344 -7.382,16.985 0.012,0.1 0.028,0.193 0.033,0.289 0.028,0.166 -0.013,0.301 -0.072,0.423 2.324,5.828 4.282,11.77 5.853,17.821 -0.401,0.436 -0.802,0.873 -1.206,1.3 C 15.84,33.192 13.961,27.343 11.717,21.609 10.466,24.44 9.21,27.277 7.972,30.127 4.329,38.489 1.955,47.47 -1.726,55.806 l -2.181,1.193 C 0.128,48.394 2.502,39.002 6.287,30.274 6.955,28.729 7.635,27.192 8.309,25.65 3.919,31.6 -0.916,37.187 -5.877,42.667 l -0.111,-1.852 -0.016,-0.221 c 5.889,-6.53 11.57,-13.244 16.478,-20.58 0.124,-0.187 0.285,-0.273 0.458,-0.297 0.006,-0.023 0.013,-0.045 0.026,-0.063 -10e-4,-0.01 -0.009,-0.025 -0.015,-0.029 -0.174,-0.425 0.066,-0.904 0.478,-1.022 2.475,-5.582 4.944,-11.159 7.298,-16.79 2.448,-5.866 4.86,-11.748 7.25,-17.636 C 17.326,-9.431 8.43,-3.428 -0.736,2.183 Z"
             style="fill:#ffe6e8;fill-opacity:1;fill-rule:nonzero;stroke:none"
             id="path3935"
             inkscape:connector-curvature="0" /></g></g></g><g
       id="g3937"
       transform="translate(-28.891511,-103.18397)"><g
         id="g3939"><g
           id="g3945"><g
             id="g3947"><path
               d="m 50.958,317.743 c 0.005,-0.025 0.023,-0.041 0.029,-0.066 v 0 c 3.495,-11.317 2.954,-23.678 1.375,-35.607 v 0 c -0.123,-1.063 -0.28,-2.116 -0.433,-3.159 v 0 l 0.011,-0.003 c -0.021,-0.075 -0.027,-0.144 -0.037,-0.223 v 0 c -0.953,-6.549 -2.121,-13.123 -2.965,-19.702 v 0 c 0,0 -0.004,-0.011 0.007,-0.013 v 0 c -0.223,-1.689 -0.421,-3.372 -0.573,-5.057 v 0 l -0.002,-0.01 c -0.635,-6.449 -0.805,-12.907 -0.026,-19.341 v 0 c 0.444,-3.711 1.472,-7.719 2.983,-11.833 v 0 c 0.649,-1.784 1.395,-3.593 2.227,-5.392 v 0 c 10.493,-22.824 34.323,-45.636 55.603,-32.617 v 0 c 0.64,0.387 1.265,0.801 1.898,1.248 v 0 c 2.313,1.66 4.597,3.771 6.813,6.366 v 0 c 3.805,4.463 6.247,9.922 8.177,15.474 v 0 c 2.038,5.861 3.56,11.976 3.65,18.177 v 0 c 0.191,11.627 -4.67,22.719 -11.733,32.086 v 0 l 0.003,0.011 c -0.914,1.191 -1.844,2.364 -2.819,3.5 v 0 l 0.003,0.012 c -0.842,0.985 -1.711,1.954 -2.589,2.89 v 0 c -4.042,4.321 -8.482,8.212 -13.106,11.896 v 0 c -0.658,0.539 -1.331,1.071 -2.016,1.594 v 0 c -6.012,4.677 -12.293,9.078 -18.402,13.654 v 0 c -0.842,0.635 -1.685,1.27 -2.524,1.917 v 0 c -0.764,0.579 -1.526,1.17 -2.284,1.77 v 0 c -7.153,5.627 -13.974,11.747 -19.485,18.877 v 0 c -2.023,2.609 -3.882,5.349 -5.499,8.256 v 0 c 0.657,-1.54 1.233,-3.118 1.714,-4.705"
               style="fill:url(#linearGradient3955);stroke:none"
               id="path3957"
               inkscape:connector-curvature="0" /></g></g></g></g><g
       id="g3959"
       transform="translate(-28.891511,-103.18397)"><g
         id="g3961"
         clip-path="url(#clipPath3965)"><g
           id="g3967"
           transform="translate(109.1569,184.7204)"><path
             d="m 0,0 c -2.171,2.451 -4.255,4.961 -6.241,7.537 -16.392,2.748 -31.73,9.874 -44.42,20.633 -1.623,1.37 -3.285,2.856 -4.942,4.446 l -2.227,5.393 c 3.324,-3.532 6.819,-6.691 10.122,-9.39 11.435,-9.323 25.034,-15.596 39.464,-18.443 -3.676,4.991 -7.028,10.185 -10.097,15.571 -0.138,0.003 -0.297,0.023 -0.454,0.088 -19.267,8.245 -34.38,24.145 -41.993,43.348 l 0.003,0.01 c 0.152,1.684 0.35,3.368 0.573,5.056 6.531,-19.796 21.045,-36.408 40.129,-45.373 -4.86,8.981 -8.957,18.457 -12.481,28.325 -2.617,7.316 -5.107,14.668 -7.557,22.043 -0.054,0.014 -0.1,0.015 -0.159,0.055 -6.614,3.953 -12.32,8.98 -16.937,14.889 l -0.011,0.003 0.434,3.158 c 4.201,-5.808 9.457,-10.818 15.581,-14.815 -2.07,6.236 -4.125,12.479 -6.205,18.717 -3.487,10.395 -6.43,21.423 -10.752,31.706 -0.005,0.024 -0.024,0.041 -0.029,0.065 l 3.785,-3.551 c 2.895,-7.752 5.193,-15.774 7.789,-23.515 2.54,-7.598 5.056,-15.201 7.593,-22.81 2.481,2.454 2.749,7.242 3.203,10.348 0.618,4.146 0.934,8.338 0.97,12.525 0.017,1.534 -0.014,3.057 -0.07,4.576 l 2.284,-1.771 c 0.077,-2.911 0.003,-5.817 -0.213,-8.731 -0.404,-5.509 -0.225,-15.593 -5.39,-19.268 1.933,-5.791 3.872,-11.56 5.857,-17.33 1.514,-4.406 3.131,-8.736 4.849,-12.988 8.078,13.204 13.414,27.697 15.823,42.747 l 2.017,-1.594 c -2.595,-15.221 -8.128,-29.882 -16.414,-43.17 -0.124,-0.2 -0.284,-0.32 -0.458,-0.401 4.26,-10.254 9.2,-20.015 15.107,-29.175 1.976,5.936 5.676,10.834 8.957,16.207 3.396,5.54 6.01,11.549 7.608,17.855 1.993,7.9 2.389,16.057 0.891,23.886 L 5.992,76.874 6.341,76.441 8.808,73.362 8.805,73.351 C 9.42,68.033 9.229,62.618 8.298,57.229 7.204,50.892 5.12,44.729 2.242,38.99 -1.625,31.315 -7.651,24.889 -9.849,16.449 -6.298,11.166 -2.411,6.095 1.898,1.247 Z"
             style="fill:#ffe6e8;fill-opacity:1;fill-rule:nonzero;stroke:none"
             id="path3969"
             inkscape:connector-curvature="0" /></g></g></g><g
       id="g3971"
       transform="translate(-28.891511,-103.18397)"><g
         id="g3973"
         clip-path="url(#clipPath3977)"><g
           id="g3979"
           transform="translate(432.7018,235.5661)"><path
             d="m 0,0 c -2.05,-10.66 -4.99,-21.15 -8.76,-31.33 -1.01,-2.75 -2.11,-5.5 -3.77,-7.91 -2.19,-3.18 -5.289,-5.64 -7.47,-8.821 -1.91,-2.799 -3.04,-6.04 -4.46,-9.12 -8.24,-17.799 -25.97,-29.5 -35.59,-46.58 -3.429,-6.099 -5.82,-12.849 -10.22,-18.29 -1.32,-1.639 -2.879,-3.179 -4.839,-3.929 -3.691,-1.43 -7.731,0.2 -11.311,2.03 -0.309,0.149 -0.62,0.309 -0.92,0.47 -6.05,3.19 -12.09,6.379 -18.139,9.57 -8.541,4.5 -17.09,9.01 -25.63,13.51 -1.881,0.99 -3.781,2 -5.311,3.46 -1.35,1.29 -2.37,2.879 -3.64,4.23 -2.35,2.5 -5.48,4.1 -8.54,5.649 -14.78,7.481 -29.57,14.96 -44.35,22.441 -8.27,4.18 -20.8,9.64 -24.88,18.68 -1.93,4.299 -0.13,8.2 2.17,11.94 3.38,5.51 7.03,10.87 10.55,16.3 3.86,5.97 7.73,11.95 11.6,17.92 3.91,6.05 7.83,12.099 11.74,18.15 6.97,10.77 13.98,21.609 18.88,33.47 2.64,6.38 4.88,13.35 10.161,17.8 3.75,-7.411 8.12,-15.39 15.819,-18.49 2.95,-1.18 6.181,-1.54 9.07,-2.85 3.26,-1.48 5.87,-4.05 8.55,-6.43 14.351,-12.75 32.25,-20.84 50.391,-27.13 C -51.87,8.819 -33.93,4.29 -16,4.71 c 2.99,0.069 5.97,0.279 8.95,0.64 2.64,0.32 6.09,0.32 7.06,-2.161 C 0.4,2.18 0.21,1.06 0,0"
             style="fill:#d8e7ec;fill-opacity:1;fill-rule:nonzero;stroke:none"
             id="path3981"
             inkscape:connector-curvature="0" /></g><g
           id="g3983"
           transform="translate(253.2174,214.6755)"><path
             d="m 0,0 c -0.922,-0.429 -2.816,-0.671 -4.753,-0.831 -1.294,-0.107 2.477,-3.426 2.964,-4.63 0.257,-0.635 0.457,-1.303 0.846,-1.867 0.387,-0.564 1.022,-1.02 1.705,-0.97 0.586,0.042 1.078,0.436 1.529,0.811 1.347,1.121 2.694,2.241 4.041,3.362 C 8.41,-2.396 9.994,0.97 7.011,2.947 4.719,4.467 2.081,0.968 0,0"
             style="fill:#e54c4c;fill-opacity:1;fill-rule:nonzero;stroke:none"
             id="path3985"
             inkscape:connector-curvature="0" /></g><g
           id="g3987"
           transform="translate(240.7506,213.0436)"><path
             d="m 0,0 c -5.285,-0.827 -10.38,-2.622 -15.664,-3.456 -6.904,-1.09 -14.01,-0.521 -20.871,-1.861 -1.665,-0.326 -3.598,-1.043 -3.965,-2.701 -0.313,-1.42 0.71,-2.753 1.667,-3.848 1.883,-2.154 3.767,-4.308 5.649,-6.461 0.865,-0.989 1.755,-2.023 2.114,-3.286 0.206,-0.724 0.323,-1.626 1.016,-1.921 0.281,-0.12 0.598,-0.104 0.903,-0.083 12.147,0.839 23.555,5.877 34.673,10.84 2.387,1.065 4.773,2.131 7.16,3.196 1.302,0.582 2.737,1.304 3.186,2.657 0.785,2.363 -2.207,6.054 -4.311,7.002 C 8.458,1.475 3.223,0.506 0,0"
             style="fill:#fe6361;fill-opacity:1;fill-rule:nonzero;stroke:none"
             id="path3989"
             inkscape:connector-curvature="0" /></g><g
           id="g3991"
           transform="translate(224.9269,113.3669)"><path
             d="m 0,0 c -4.798,-1.092 -9.739,-1.379 -14.655,-1.577 -8.205,-0.331 -16.488,-0.419 -24.552,1.13 -6.834,1.312 -13.678,3.803 -20.564,2.797 -1.379,19.665 4.676,39.005 10.659,57.789 0.218,0.682 0.469,1.413 1.051,1.832 0.592,0.425 1.38,0.422 2.107,0.374 5.112,-0.331 10.027,-1.997 15,-3.226 9.069,-2.238 18.492,-3.034 27.807,-2.348 2.088,0.153 4.239,0.374 6.233,-0.265 C 5.133,55.85 6.791,54.357 8.326,52.853 13.172,48.102 17.48,42.804 21.159,37.101 24.316,32.208 29.111,25.332 29.964,19.46 30.792,13.767 22.656,10.52 18.478,7.984 12.722,4.492 6.596,1.501 0,0"
             style="fill:#1e1240;fill-opacity:1;fill-rule:nonzero;stroke:none"
             id="path3993"
             inkscape:connector-curvature="0" /></g></g></g><g
       id="g3995"
       transform="translate(-28.891511,-103.18397)"><g
         id="g3997"><g
           id="g4003"><g
             id="g4005"><path
               d="m 315.57,265.046 c -4.679,-1.601 -9.6,-2.25 -14.24,-4.081 v 0 c -1.54,-0.609 -3.05,-1.3 -4.51,-2.08 v 0 c -3.309,-1.77 -6.33,-4.03 -8.74,-6.94 v 0 c -5.07,-6.11 -7.201,-14.66 -13.59,-19.37 v 0 c -3.23,-2.38 -7.21,-3.5 -10.62,-5.61 v 0 c -3.4,-2.12 -6.37,-5.91 -5.51,-9.82 v 0 c 0.231,-1.05 0.73,-2.08 0.61,-3.14 v 0 c 0,-0.041 0,-0.09 -0.01,-0.13 v 0 c -0.22,-1.45 -1.56,-2.43 -2.79,-3.23 v 0 c -14.16,-9.21 -29.15,-17.16 -44.73,-23.72 v 0 c 1.009,-15.73 8.27,-30.02 18.23,-42.48 v 0 -0.009 c 4.246,-5.32 8.984,-10.302 13.931,-14.916 v 0 c 6.575,-1.053 13.04,-2.675 19.448,-4.588 v 0 c 0.151,0.074 0.301,0.148 0.45,0.223 v 0 c 8.881,4.42 17.17,9.98 24.781,16.33 v 0 c 5.71,4.76 11.03,9.95 16.33,15.15 v 0 c 0.151,0.14 0.3,0.291 0.45,0.44 v 0 c 8.85,8.68 17.71,17.37 26.009,26.59 v 0 c 3.091,3.42 6.272,7.049 10.591,8.67 v 0 c 4.31,1.61 10.1,0.369 11.891,-3.88 v 0 c 2.239,0.39 3.789,2.38 5.119,4.221 v 0 c 2.48,3.42 4.95,6.84 7.42,10.26 v 0 c 3.64,5.019 7.43,10.529 7.3,16.729 v 0 c -0.049,2.4 -0.7,4.75 -1.351,7.07 v 0 c -1.139,4.09 -2.289,8.19 -3.429,12.29 v 0 c -0.94,3.349 -1.96,6.85 -4.38,9.361 v 0 c -1.54,1.589 -3.54,2.649 -5.5,3.679 v 0 c -9.9,5.22 -19.95,10.51 -30.87,13.259 v 0 c -2.32,0.587 -4.194,0.905 -6.022,0.905 v 0 c -1.977,0 -3.899,-0.373 -6.268,-1.183"
               style="fill:url(#linearGradient4013);stroke:none"
               id="path4015"
               inkscape:connector-curvature="0" /></g></g></g></g><g
       id="g4017"
       transform="translate(-28.891511,-103.18397)"><g
         id="g4019"
         clip-path="url(#clipPath4023)"><g
           id="g4025"
           transform="translate(340.2692,230.5563)"><path
             d="m 0,0 c -1.725,0.956 -3.938,0.504 -5.615,-0.533 -1.678,-1.036 -2.972,-2.573 -4.379,-3.955 -1.406,-1.382 -3.047,-2.672 -4.993,-2.991 -1.901,-0.313 -3.823,0.342 -5.749,0.364 -3.054,0.034 -5.915,-1.528 -8.284,-3.455 -2.368,-1.929 -4.393,-4.252 -6.779,-6.159 -2.067,-1.652 -4.387,-2.975 -6.398,-4.694 -2.012,-1.719 -3.755,-3.958 -4.123,-6.578 -0.176,-1.245 -0.008,-2.585 0.716,-3.613 0.937,-1.331 2.667,-1.926 4.294,-1.874 1.627,0.05 3.182,0.654 4.673,1.306 6.205,2.719 11.958,6.463 16.973,11.017 2.25,2.042 4.197,4.14 5.879,6.657 1.6,2.397 4.192,3.702 6.332,5.577 C -4.524,-6.366 -1.994,-3.345 0,0"
             style="fill:#2d2796;fill-opacity:1;fill-rule:nonzero;stroke:none"
             id="path4027"
             inkscape:connector-curvature="0" /></g><g
           id="g4029"
           transform="translate(296.8199,258.8849)"><path
             d="m 0,0 c -1.77,-5.21 -4.92,-9.87 -8.03,-14.44 -1.61,-2.38 -3.23,-4.75 -4.84,-7.13 -1.41,-2.07 -2.82,-4.139 -4.38,-6.1 -3.87,-4.86 -8.61,-8.94 -13.57,-12.66 -1.97,-1.47 -4.69,-3.72 -7.03,-4.55 0.121,1.06 -0.379,2.09 -0.61,3.14 -0.86,3.91 2.11,7.7 5.51,9.82 3.41,2.11 7.39,3.23 10.62,5.61 6.39,4.71 8.52,13.26 13.59,19.37 2.41,2.91 5.43,5.17 8.74,6.94"
             style="fill:#2d2796;fill-opacity:1;fill-rule:nonzero;stroke:none"
             id="path4031"
             inkscape:connector-curvature="0" /></g><g
           id="g4033"
           transform="translate(309.15,166.2253)"><path
             d="m 0,0 v -67.23 c 0,-3.241 -2.62,-5.871 -5.86,-5.871 -3.24,0 -5.87,2.63 -5.87,5.871 V 0 c 0,3.229 2.63,5.859 5.87,5.859 1.62,0 3.089,-0.659 4.15,-1.719 C -0.65,3.08 0,1.62 0,0"
             style="fill:#2e215e;fill-opacity:1;fill-rule:nonzero;stroke:none"
             id="path4035"
             inkscape:connector-curvature="0" /></g><g
           id="g4037"
           transform="translate(309.15,153.6149)"><path
             d="m 0,0 v -22.06 c -0.51,0.15 -1.021,0.32 -1.521,0.49 -3.529,1.24 -6.949,2.78 -10.209,4.6 V 1.61 C -7.71,1.521 -2.771,0.5 0,0"
             style="fill:#03010c;fill-opacity:1;fill-rule:nonzero;stroke:none"
             id="path4039"
             inkscape:connector-curvature="0" /></g><g
           id="g4041"
           transform="translate(377.8297,176.1647)"><path
             d="m 0,0 c -0.16,-0.5 -0.609,-0.84 -1.04,-1.14 -8.81,-6.259 -18.91,-10.53 -27.779,-16.71 -7.33,-5.1 -14.21,-11.679 -22.991,-13.28 -5.39,-0.979 -10.91,0.05 -16.28,1.08 -10.229,1.95 -20.46,3.91 -30.689,5.861 -12.431,2.379 -24.941,4.779 -36.681,9.489 -0.44,0.18 -0.91,0.39 -1.15,0.801 -0.579,1 0.61,2.08 1.62,2.62 14.77,7.929 30.49,13.75 44.02,23.84 1.781,1.319 3.571,2.729 5.691,3.379 1.559,0.48 3.229,0.531 4.859,0.55 13.53,0.14 27.08,-1.61 40.13,-5.179 l 0.87,-0.241 C -30.66,8.61 -22.01,5.4 -13.14,3.61 -9.87,2.96 -6.569,2.49 -3.229,2.33 -1.689,2.25 0.471,1.471 0,0"
             style="fill:#afccd2;fill-opacity:1;fill-rule:nonzero;stroke:none"
             id="path4043"
             inkscape:connector-curvature="0" /></g><g
           id="g4045"
           transform="translate(378.6862,176.902)"><path
             d="m 0,0 c -0.287,0.021 -0.573,0.025 -0.86,0.043 0.084,-0.234 0.094,-0.495 0.003,-0.783 -0.16,-0.498 -0.608,-0.839 -1.035,-1.142 -8.818,-6.257 -18.915,-10.525 -27.788,-16.705 -7.33,-5.104 -14.202,-11.68 -22.99,-13.277 -5.382,-0.979 -10.903,0.05 -16.276,1.077 -10.232,1.954 -20.463,3.909 -30.695,5.864 -12.423,2.374 -24.938,4.774 -36.674,9.49 -0.308,0.124 -0.626,0.267 -0.874,0.479 -1.484,-2.31 1.366,-5.68 3.258,-6.91 2.693,-1.752 6.001,-2.199 9.183,-2.649 13.51,-1.904 26.905,-4.61 40.095,-8.099 11.816,-3.126 24.319,-6.887 36.004,-3.297 3.987,1.225 7.676,3.267 11.19,5.515 9.63,6.162 18.232,14 28.547,18.93 2.448,1.17 5.039,2.208 6.988,4.096 C 0.025,-5.481 1.179,-2.444 0,0"
             style="fill:#659296;fill-opacity:1;fill-rule:nonzero;stroke:none"
             id="path4047"
             inkscape:connector-curvature="0" /></g><g
           id="g4049"
           transform="translate(364.6901,179.7751)"><path
             d="m 0,0 c -0.39,-0.61 -0.92,-1.16 -1.45,-1.64 -2.96,-2.71 -6.37,-4.87 -9.76,-7.01 -4.18,-2.65 -8.36,-5.29 -12.54,-7.93 -5.2,-3.28 -10.45,-6.59 -16.23,-8.72 -5.77,-2.12 -12.19,-2.99 -18.1,-1.29 -4.37,1.26 -8.231,3.85 -12.4,5.66 -2.791,1.22 -11.24,0.88 -12.19,3.99 -1.08,3.54 5.84,7.16 8.22,8.55 4.57,2.67 9.22,5.21 13.92,7.619 3.32,1.71 6.69,3.351 10.24,4.491 4.5,1.44 9.229,2.04 13.92,2.63 3.33,0.42 6.71,0.839 10.09,1.11 C -17.521,5 -8.87,1.79 0,0"
             style="fill:#9abcc1;fill-opacity:1;fill-rule:nonzero;stroke:none"
             id="path4051"
             inkscape:connector-curvature="0" /></g><g
           id="g4053"
           transform="translate(265.5465,173.5319)"><path
             d="m 0,0 c -0.859,-0.562 -1.788,-1.275 -1.885,-2.298 -0.158,-1.681 1.896,-2.583 3.543,-2.961 l 40.134,-9.193 c 2.101,-0.482 4.209,-0.964 6.354,-1.174 4.815,-0.471 9.7,0.454 14.214,2.193 5.101,1.965 9.744,4.935 14.347,7.884 4.022,2.576 8.06,5.165 11.651,8.314 2.427,2.128 4.67,4.524 7.472,6.125 1.846,1.054 4.22,2.2 4.245,4.325 -5.778,2.846 -12.096,4.386 -18.354,5.905 -2.824,0.685 -5.647,1.37 -8.47,2.055 -3.325,0.807 -6.65,1.614 -9.975,2.421 -6.412,1.555 -12.849,3.116 -19.418,3.736 -3.666,0.347 -7.495,0.372 -10.869,-1.103 C 26.476,23.381 23.634,16.018 18.354,11.604 12.775,6.94 6.055,3.956 0,0"
             style="fill:#ffffff;fill-opacity:1;fill-rule:nonzero;stroke:none"
             id="path4055"
             inkscape:connector-curvature="0" /></g><g
           id="g4057"
           transform="translate(354.2897,188.655)"><path
             d="m 0,0 c -0.08,-0.7 -0.34,-1.34 -0.88,-1.8 -1.05,-0.89 -2.62,-0.65 -3.979,-0.42 -2.891,0.5 -5.84,0.68 -8.781,0.57 -1.2,-0.05 -2.45,-0.17 -3.469,-0.79 -1.17,-0.72 -1.87,-1.98 -2.851,-2.95 -1.62,-1.61 -3.79,-2.23 -6.069,-2.67 -2.651,-0.53 -5.46,-0.84 -7.731,-2.23 -3.059,-1.87 -4.639,-5.35 -6.59,-8.35 -1.96,-3 -5.06,-5.91 -8.61,-5.42 -2.979,0.42 -5.729,2.45 -8.649,3.54 1.29,0.48 2.569,0.97 3.859,1.45 3.29,1.23 6.641,2.5 9.42,4.65 2.57,1.99 4.54,4.64 6.95,6.82 2.24,2.04 4.86,3.66 7.681,4.77 0.059,0.02 0.069,0.08 0.059,0.17 0.241,-0.05 0.531,-0.04 0.901,0.06 1.42,0.4 3.54,1.89 4.659,2.86 1.971,1.69 4.761,1.95 7.351,2.1 0.059,0 0.12,0.01 0.179,0.01 0.47,0.03 0.93,0.05 1.401,0.07 1.259,0.081 2.519,0.14 3.779,0.2 2.641,0.12 5.301,0.21 7.95,0.27 0,0.411 3.49,-0.464 4.191,-0.911 C 1.03,2.039 0.377,0.949 0,0"
             style="fill:#f4f2f2;fill-opacity:1;fill-rule:nonzero;stroke:none"
             id="path4059"
             inkscape:connector-curvature="0" /></g><g
           id="g4061"
           transform="translate(350.9196,191.5651)"><path
             d="m 0,0 c -2.67,-0.061 -5.34,-0.15 -8,-0.271 -1.729,-0.08 -3.449,-0.169 -5.18,-0.269 -0.059,0 -0.12,-0.01 -0.179,-0.01 -2.59,-0.15 -5.38,-0.41 -7.351,-2.1 -1.119,-0.97 -3.239,-2.46 -4.659,-2.86 -1.401,-0.39 -1.62,0.46 -2.591,1.54 -0.979,1.08 -1.58,2.44 -2.359,3.67 -3.471,5.47 -10.391,8 -16.87,7.83 -0.8,-0.02 -1.831,0.08 -2.031,0.86 -0.109,0.39 0.08,0.799 0.271,1.16 2.699,5.04 7.939,8.11 13.01,10.75 3.28,1.7 6.589,3.349 9.95,4.88 0.319,0.15 0.639,0.299 0.96,0.44 0.41,0.18 0.79,0.33 1.17,0.44 2.54,0.79 4.41,0.11 7.04,-1.371 5.34,-3.009 9.2,-8.119 12.679,-13.029 C -1.689,8.189 0.82,4.17 0,0"
             style="fill:#e54c4c;fill-opacity:1;fill-rule:nonzero;stroke:none"
             id="path4063"
             inkscape:connector-curvature="0" /></g><g
           id="g4065"
           transform="translate(282.316,181.902)"><path
             d="m 0,0 c -0.609,-1.345 -1.15,-2.768 -2.169,-3.837 -0.851,-0.892 -1.971,-1.469 -3.068,-2.028 -1.444,-0.737 -2.887,-1.474 -4.33,-2.21 -3.908,-1.994 -8.157,-4.367 -9.579,-8.518 -0.275,-0.803 -0.465,-1.705 -1.113,-2.255 -0.562,-0.478 -1.341,-0.578 -2.058,-0.75 -2.91,-0.698 -5.372,-2.956 -6.413,-5.76 -0.846,-2.279 -0.79,-4.805 -0.341,-7.194 3,-0.988 5.999,-1.976 8.999,-2.964 1.806,-0.595 3.693,-1.198 5.577,-0.932 1.115,0.157 2.172,0.615 3.286,0.783 1.504,0.228 3.069,-0.077 4.544,0.297 3.984,1.009 5.167,6.006 7.883,9.091 1.203,1.367 2.779,2.407 3.771,3.932 0.993,1.526 1.152,3.87 -0.33,4.928 4.521,1.699 9.041,3.397 13.562,5.097 3.294,1.237 6.642,2.506 9.427,4.657 2.569,1.985 4.54,4.634 6.943,6.816 2.243,2.039 4.862,3.663 7.685,4.766 0.787,0.307 -5.55,7.939 -6.198,8.504 -2.846,2.484 -6.239,4.248 -9.876,5.252 C 19.553,19.51 12.25,14.722 7.514,10.342 4.365,7.431 1.772,3.909 0,0"
             style="fill:#fe6361;fill-opacity:1;fill-rule:nonzero;stroke:none"
             id="path4067"
             inkscape:connector-curvature="0" /></g><g
           id="g4069"
           transform="translate(359.1803,263.9948)"><path
             d="m 0,0 c 0.01,-4.2 0.229,-8.41 0.66,-12.59 -4.27,-1.67 -8.73,-2.78 -13.27,-3.51 -2.35,-0.379 -4.73,-0.66 -7.111,-0.87 -1.71,-0.15 -4.13,0.21 -4.509,2.31 -0.26,1.48 1.12,2.92 1.81,4.1 2.29,3.86 4,7.88 7.05,11.25 2.72,3.01 6.14,5.37 9.91,6.85 0.68,0.26 1.38,0.5 2.09,0.68 1.41,0.36 2.859,0.49 4.269,0.16 C 0.1,5.68 0,2.82 0,0"
             style="fill:#db4646;fill-opacity:1;fill-rule:nonzero;stroke:none"
             id="path4071"
             inkscape:connector-curvature="0" /></g><g
           id="g4073"
           transform="translate(353.5299,267.2751)"><path
             d="m 0,0 c -3.9,-5.43 -6.33,-11.92 -6.9,-18.59 -0.02,-0.26 -0.039,-0.52 -0.06,-0.79 -2.35,-0.38 -4.729,-0.66 -7.11,-0.87 -1.71,-0.15 -4.13,0.21 -4.51,2.31 -0.26,1.48 1.12,2.92 1.81,4.1 2.291,3.86 4,7.88 7.05,11.25 C -7,0.42 -3.58,2.78 0.19,4.26 0.87,4.52 1.57,4.76 2.28,4.94 3.12,3.69 1.53,2.13 0,0"
             style="fill:#c13636;fill-opacity:1;fill-rule:nonzero;stroke:none"
             id="path4075"
             inkscape:connector-curvature="0" /></g><g
           id="g4077"
           transform="translate(367.7799,285.1652)"><path
             d="m 0,0 c -0.4,-4.71 -2.39,-9.27 -5.56,-12.76 -0.64,-0.71 -1.379,-1.4 -2.31,-1.57 -0.97,-0.19 -2.01,0.22 -2.94,-0.1 -0.629,-0.23 -1.1,-0.75 -1.54,-1.26 -2.7,-3.18 -5.16,-6.56 -7.33,-10.12 -1.12,-1.84 -2.2,-3.76 -3.81,-5.18 -2.63,-2.31 -6.29,-2.97 -9.739,-3.55 -1.441,-0.24 -2.921,-0.47 -4.361,-0.4 -0.82,0.04 -1.62,0.17 -2.389,0.45 -2.241,0.81 -3.861,2.72 -5.381,4.56 -1.29,1.56 -2.59,3.16 -3.43,5.01 -0.68,1.49 -1.03,3.11 -1.37,4.72 -1.529,7.2 -3.029,14.48 -2.99,21.84 0.02,4.15 0.53,8.3 1.52,12.34 0.57,2.36 3.17,6.07 0.54,7.61 4.96,0.22 9.75,0.74 14.59,1.49 1.87,0.28 3.74,0.61 5.64,0.96 6.74,1.25 13.73,2.31 20.5,0.69 0.97,-0.23 1.95,-0.53 2.68,-1.2 1.29,-1.18 1.43,-3.12 1.48,-4.86 0.1,-3.2 0.19,-6.41 -0.15,-9.59 C -6.62,6.59 -7.12,3.92 -5.939,1.71 -4.99,2.28 -3.99,2.87 -2.88,2.98 -1.77,3.09 -0.52,2.59 -0.12,1.55 0.061,1.06 0.04,0.52 0,0"
             style="fill:#fe6361;fill-opacity:1;fill-rule:nonzero;stroke:none"
             id="path4079"
             inkscape:connector-curvature="0" /></g><g
           id="g4081"
           transform="translate(367.7799,285.1652)"><path
             d="m 0,0 c -0.4,-4.71 -2.39,-9.27 -5.56,-12.76 -0.64,-0.71 -1.379,-1.4 -2.31,-1.57 -0.97,-0.19 -2.01,0.22 -2.94,-0.1 -0.629,-0.23 -1.1,-0.75 -1.54,-1.26 -2.7,-3.18 -5.16,-6.56 -7.33,-10.12 -1.12,-1.84 -2.2,-3.76 -3.81,-5.18 -2.63,-2.31 -6.29,-2.97 -9.739,-3.55 -1.441,-0.24 -2.921,-0.47 -4.361,-0.4 -0.2,1.53 0.97,3.06 2.361,3.85 1.519,0.87 3.309,1.14 4.939,1.81 4.24,1.75 7.061,6.44 6.61,11.01 -0.28,2.9 -1.68,6.01 -0.25,8.54 1.11,1.98 3.61,2.83 4.82,4.75 1.31,2.09 0.76,4.79 0.16,7.19 -0.55,2.23 -1.18,4.59 -2.85,6.18 -2.81,2.66 -7.3,2.09 -11.04,1.08 -2.49,-0.68 -7.41,-2.74 -9.52,-0.35 -2.01,2.27 0.08,5.75 1.36,7.76 1.37,2.14 2.87,4.23 4.5,6.2 1.87,0.28 3.74,0.61 5.64,0.96 6.74,1.25 13.73,2.31 20.5,0.69 0.97,-0.23 1.95,-0.53 2.68,-1.2 1.29,-1.18 1.43,-3.12 1.48,-4.86 0.1,-3.2 0.19,-6.41 -0.15,-9.59 C -6.62,6.59 -7.12,3.92 -5.939,1.71 -4.99,2.28 -3.99,2.87 -2.88,2.98 -1.77,3.09 -0.52,2.59 -0.12,1.55 0.061,1.06 0.04,0.52 0,0"
             style="fill:#ea5757;fill-opacity:1;fill-rule:nonzero;stroke:none"
             id="path4083"
             inkscape:connector-curvature="0" /></g></g></g><g
       id="g4085"
       transform="translate(-28.891511,-103.18397)"><g
         id="g4087"><g
           id="g4093"><g
             id="g4095"><path
               d="m 332.417,325.741 c -4.531,-0.639 -8.887,-2.612 -12.249,-5.714 v 0 c -3.363,-3.102 -5.696,-7.336 -6.367,-11.862 v 0 c -0.204,-1.377 -0.267,-2.81 -0.867,-4.068 v 0 c -0.483,-1.014 -1.292,-1.854 -1.725,-2.89 v 0 c -0.937,-2.25 0.188,-4.976 2.124,-6.457 v 0 c 1.936,-1.481 4.482,-1.922 6.919,-1.916 v 0 c 4.843,0.012 9.565,1.601 13.904,3.751 v 0 c 4.339,2.15 8.373,4.862 12.547,7.317 v 0 c 1.148,0.675 2.42,1.355 3.739,1.17 v 0 c 1.451,-0.202 2.563,-1.413 3.259,-2.703 v 0 c 1.801,-3.341 1.576,-7.353 1.563,-11.149 v 0 c -0.004,-1.472 0.06,-3.045 0.916,-4.245 v 0 c 1.4,-1.968 4.843,-1.884 6.146,0.151 v 0 c 0.256,0.399 0.437,0.851 0.76,1.2 v 0 c 0.286,0.308 0.664,0.514 1.002,0.768 v 0 c 1.544,1.166 2.079,3.218 2.414,5.124 v 0 c 0.922,5.257 1.089,10.647 0.49,15.951 v 0 c -0.499,4.426 -2.358,6.429 -6.239,8.317 v 0 c -3.505,1.704 -6.329,4.513 -9.976,5.983 v 0 c -3.732,1.503 -7.864,1.582 -11.886,1.587 v 0 c -0.092,0 -0.184,0 -0.276,0 v 0 c -2.072,0 -4.148,-0.025 -6.198,-0.315"
               style="fill:url(#linearGradient4107);stroke:none"
               id="path4109"
               inkscape:connector-curvature="0" /></g></g></g></g><g
       id="g4111"
       transform="translate(-28.891511,-103.18397)"><g
         id="g4113"><g
           id="g4119"><g
             id="g4121"><path
               d="m 104.512,148.92 c -0.424,-0.44 -0.318,-3.596 -0.499,-4.297 v 0 c -0.424,-1.634 -1.312,-3.182 -2.103,-4.657 v 0 c -0.341,-0.635 -0.677,-1.275 -1.006,-1.921 v 0 c 15.987,-9.41 35.028,-14.064 53.7,-14.082 v 0 c 11.794,-0.011 23.533,1.642 35.256,3.333 v 0 c -0.293,4.612 -1.096,9.191 -2.409,13.622 v 0 c -0.274,0.925 -0.62,1.912 -1.425,2.442 v 0 c -0.611,0.402 -1.377,0.464 -2.107,0.513 v 0 c -15.395,1.045 -30.79,2.09 -46.185,3.135 v 0 c -7.698,0.522 -15.394,1.045 -23.092,1.566 v 0 c -1.267,0.086 -5.182,0.852 -7.806,0.852 v 0 c -1.096,0 -1.966,-0.133 -2.324,-0.506"
               style="fill:url(#linearGradient4129);stroke:none"
               id="path4131"
               inkscape:connector-curvature="0" /></g></g></g></g><g
       id="g4133"
       transform="translate(-28.891511,-103.18397)"><g
         id="g4135"
         clip-path="url(#clipPath4139)"><g
           id="g4141"
           transform="translate(209.7702,233.3669)"><path
             d="m 0,0 c 1.502,-7.837 1.92,-15.882 1.24,-23.833 -0.191,-2.231 -0.466,-4.504 0.015,-6.692 0.881,-4.003 4.15,-7.061 7.655,-9.187 3.504,-2.127 7.395,-3.597 10.753,-5.947 -3.711,-2.791 -6.297,-6.864 -8.018,-11.177 -1.721,-4.312 -2.641,-8.894 -3.552,-13.446 -9.32,2.271 -18.224,6.239 -26.145,11.651 1.073,11.35 2.147,22.699 3.22,34.049 0.5,5.283 1,10.567 1.499,15.851 0.537,5.67 1.073,11.34 1.61,17.011 0.276,2.927 0.553,5.854 0.83,8.78 0.17,1.794 -0.253,6.003 0.909,7.354 3.244,3.771 5.24,-6.953 5.784,-8.659 C -2.549,10.575 -1.024,5.345 0,0"
             style="fill:#becfd3;fill-opacity:1;fill-rule:nonzero;stroke:none"
             id="path4143"
             inkscape:connector-curvature="0" /></g></g></g><g
       id="g4145"
       transform="translate(-28.891511,-103.18397)"><g
         id="g4147"><g
           id="g4153"><g
             id="g4155"><path
               d="m 190.82,272.455 c -11.92,-1.14 -23.87,-2.28 -35.63,-4.55 v 0 c -0.08,-0.02 -0.161,-0.03 -0.24,-0.05 v 0 c -5.89,-1.15 -11.73,-2.57 -17.44,-4.42 v 0 c -2.03,-0.66 -4.32,-1.16 -5.8,-2.8 v 0 c -1.31,-1.44 -2.169,-3.45 -3.36,-5.02 v 0 c -2.27,-2.96 -4.79,-5.74 -7.53,-8.27 v 0 c -1.9,-1.78 -3.91,-3.431 -6,-4.96 v 0 c -2.12,-1.56 -4.38,-3.03 -5.94,-5.15 v 0 c -1.27,-1.74 -1.98,-3.809 -2.66,-5.85 v 0 C 98.59,208.445 93.4,184.695 90.77,160.664 v 0 c -0.14,-1.329 -0.28,-2.689 0.099,-3.969 v 0 c 0.331,-1.09 1.011,-2.05 1.681,-2.97 v 0 c 5.841,-8.09 12.35,-16.66 21.89,-19.59 v 0 c 2.4,6.31 5.64,12.3 9.58,17.78 v 0 c 1.4,1.94 3.02,3.91 5.29,4.64 v 0 c 1.73,0.56 3.6,0.319 5.4,0.09 v 0 c 16.711,-2.09 33.63,-2.589 50.44,-1.47 v 0 c 1.3,0.08 2.69,0.22 3.69,1.06 v 0 c 0.87,0.74 1.26,1.88 1.61,2.96 v 0 c 6.4,20.09 9.91,40.96 13.4,61.75 v 0 c 0.55,3.269 1.1,6.56 1.17,9.87 v 0 c 0.09,4.04 -0.53,8.059 -1.15,12.05 v 0 c -1.03,6.67 -2.059,13.34 -3.1,20.02 v 0 c -0.56,3.65 -1.6,7.93 -5.05,9.27 v 0 c -0.852,0.332 -1.756,0.434 -2.673,0.434 v 0 c -0.741,0 -1.49,-0.067 -2.227,-0.134"
               style="fill:url(#linearGradient4163);stroke:none"
               id="path4165"
               inkscape:connector-curvature="0" /></g></g></g></g><g
       id="g4167"
       transform="translate(-28.891511,-103.18397)"><g
         id="g4169"
         clip-path="url(#clipPath4173)"><g
           id="g4175"
           transform="translate(201.9308,206.7009)"><path
             d="M 0,0 C -0.001,0.009 -0.006,0.015 -0.007,0.023 0.021,0.061 0.051,0.094 0.08,0.132 0.449,0.619 0.219,1.133 -0.19,1.433 2.683,4.448 5.559,7.979 5.608,11.461 5.616,11.995 5.022,12.3 4.574,12.055 4.398,11.958 4.229,11.851 4.059,11.742 c 0.031,0.187 0.069,0.371 0.093,0.559 0.108,0.842 -1.21,1.386 -1.734,0.718 -3.471,-4.428 -5.811,-9.52 -9.527,-13.866 -3.604,-4.214 -7.408,-10.251 -12.532,-12.558 -0.025,-0.011 -0.007,-0.052 0.018,-0.043 1.377,0.472 2.728,1.083 4.043,1.796 2.111,0.671 3.947,1.814 5.626,3.194 0.009,-0.007 0.02,-0.016 0.023,-0.003 0.002,0.01 0.006,0.019 0.009,0.028 1.28,1.056 2.471,2.245 3.623,3.467 1.011,0.446 2.057,0.705 2.887,0.707 1.936,0.005 3.837,-1.301 5.7,-1.727 1.439,-0.329 2.105,1.475 0.968,2.296 C 1.828,-2.66 0.315,-1.911 0,0"
             style="fill:#becfd3;fill-opacity:1;fill-rule:nonzero;stroke:none"
             id="path4177"
             inkscape:connector-curvature="0" /></g><g
           id="g4179"
           transform="translate(139.1466,159.1657)"><path
             d="m 0,0 c -0.38,4.306 -4.653,5.961 -7.01,9.017 -2.825,3.662 -2.451,8.778 -1.942,13.375 l 1.868,16.849 c 0.508,4.587 0.956,9.463 -0.372,13.784 -0.078,2.222 -0.321,4.354 -0.589,6.145 -0.072,0.478 -0.163,0.951 -0.264,1.422 -0.377,2.704 -1.265,4.785 -2.608,6.601 -1.181,1.902 -2.704,3.572 -4.575,4.889 -1.072,0.928 -2.466,1.66 -4.388,2.198 -0.056,0.016 -0.086,-0.061 -0.039,-0.092 4.41,-2.804 6.121,-9.01 7.453,-13.917 0.786,-2.896 0.405,-5.411 -0.05,-7.987 -0.366,-0.746 -0.677,-1.526 -0.942,-2.292 -3.412,-9.887 -4.333,-20.431 -5.229,-30.852 -0.188,-2.2 -0.377,-4.42 -0.081,-6.608 0.839,-6.204 7,-16.08 13.678,-17.407 C -1.745,-5.54 0.303,-3.429 0,0"
             style="fill:#becfd3;fill-opacity:1;fill-rule:nonzero;stroke:none"
             id="path4181"
             inkscape:connector-curvature="0" /></g><g
           id="g4183"
           transform="translate(255.3434,186.1266)"><path
             d="m 0,0 c 0.157,-2.395 0.902,-4.706 1.642,-6.99 0.673,-2.082 1.696,-4.49 3.842,-4.921 0.754,-0.152 1.533,-0.019 2.29,0.115 1.705,0.3 3.409,0.6 5.113,0.9 4.005,0.706 8.221,1.507 11.304,4.16 2.551,2.192 3.991,5.371 5.954,8.102 3.692,5.142 9.189,8.639 14.548,12.008 1.729,1.086 3.565,2.207 5.605,2.272 1.316,0.041 3.03,-0.162 3.562,1.042 0.128,0.291 0.163,0.639 0.396,0.853 0.21,0.193 0.52,0.22 0.78,0.338 0.676,0.308 0.894,1.234 0.609,1.92 -0.283,0.686 -0.933,1.154 -1.607,1.465 -0.393,0.181 -0.831,0.342 -1.072,0.703 -0.165,0.246 -0.213,0.555 -0.37,0.808 -0.361,0.582 -1.147,0.69 -1.829,0.737 -3.157,0.221 -6.314,0.442 -9.47,0.663 -1.295,0.091 -2.627,0.178 -3.864,-0.217 -3.542,-1.127 -5.06,-5.684 -8.566,-6.917 C 27.743,16.646 26.505,16.635 25.4,16.187 23.19,15.293 22.035,12.934 20.702,10.957 18.305,7.404 14.72,4.719 10.71,3.243 8.687,2.498 6.549,2.058 4.394,1.97 2.572,1.896 -0.187,2.842 0,0"
             style="fill:#4cb4d5;fill-opacity:1;fill-rule:nonzero;stroke:none"
             id="path4185"
             inkscape:connector-curvature="0" /></g><g
           id="g4187"
           transform="translate(305.4342,201.6745)"><path
             d="m 0,0 c -0.24,0.793 -1.078,1.237 -1.871,1 -6.669,-2.024 -13.511,-3.802 -20.338,-5.283 -0.81,-0.176 -1.323,-0.975 -1.147,-1.784 0.152,-0.703 0.773,-1.182 1.463,-1.182 0.106,0 0.213,0.011 0.321,0.034 6.905,1.498 13.827,3.296 20.572,5.344 0.793,0.241 1.24,1.078 1,1.871"
             style="fill:#ae273e;fill-opacity:1;fill-rule:nonzero;stroke:none"
             id="path4189"
             inkscape:connector-curvature="0" /></g><g
           id="g4191"
           transform="translate(159.0797,154.7751)"><path
             d="m 0,0 c 0.03,-4.34 -1.32,-8.561 -2.77,-12.64 -0.29,-0.82 -0.62,-1.68 -1.31,-2.19 -0.64,-0.47 -1.47,-0.56 -2.25,-0.64 -6.07,-0.58 -12.19,-1.16 -18.28,-1.04 -2.619,0.05 -5.24,0.23 -7.84,0.6 -3.31,0.48 -6.64,1.26 -9.97,0.86 2.24,3.739 4.481,7.47 6.731,11.21 1.539,2.569 3.059,4.96 5.869,5.66 0.381,0.09 0.78,0.15 1.2,0.18 C -19.06,2.62 -9.57,-0.4 0,0"
             style="fill:#fe6361;fill-opacity:1;fill-rule:nonzero;stroke:none"
             id="path4193"
             inkscape:connector-curvature="0" /></g></g></g><g
       id="g4195"
       transform="translate(-28.891511,-103.18397)"><g
         id="g4197"><g
           id="g4203"><g
             id="g4205"><path
               d="m 154.95,267.855 c -5.89,-1.15 -11.73,-2.57 -17.44,-4.42 v 0 c -2.03,-0.66 -4.32,-1.16 -5.8,-2.8 v 0 c -1.31,-1.44 -2.169,-3.45 -3.36,-5.02 v 0 c -2.27,-2.96 -4.79,-5.74 -7.53,-8.27 v 0 c 0,-0.029 0,-0.05 0.009,-0.08 v 0 c 0.361,-1.43 2.051,-2.16 3.511,-2 v 0 c 1.46,0.17 2.76,0.979 4.05,1.69 v 0 c 10.539,5.79 24.3,5.18 34.3,-1.52 v 0 c 1.31,-0.87 2.7,-1.891 4.27,-1.78 v 0 c 0.98,2.76 -0.11,5.8 -1.34,8.45 v 0 c -1.48,3.18 -3.19,6.26 -5.12,9.19 v 0 c -1.55,2.37 -3.27,4.659 -5.31,6.61 v 0 c -0.08,-0.02 -0.161,-0.03 -0.24,-0.05"
               style="fill:url(#linearGradient4213);stroke:none"
               id="path4215"
               inkscape:connector-curvature="0" /></g></g></g></g><g
       id="g4217"
       transform="translate(-28.891511,-103.18397)"><g
         id="g4219"
         clip-path="url(#clipPath4223)"><g
           id="g4225"
           transform="translate(192.59,271.3249)"><path
             d="m 0,0 c -0.03,-1.35 -1.14,-2.42 -2.24,-3.22 -2.92,-2.15 -6.61,-4.11 -7.33,-7.66 -0.18,-0.88 -0.15,-1.79 -0.13,-2.69 0.15,-5.78 -0.06,-11.57 -0.62,-17.32 -0.3,-3.07 -0.7,-6.13 -1.2,-9.17 -0.04,-0.27 -0.11,-0.58 -0.36,-0.69 -0.32,-0.149 -0.66,0.12 -0.9,0.37 -2.82,3 -4.77,6.7 -7.24,9.99 -7.22,9.61 -18.47,15.19 -27.77,22.81 -0.46,0.38 -0.93,0.78 -1.18,1.32 -0.49,1.09 0.07,2.36 0.74,3.35 2.61,3.89 6.78,6.38 10.58,9.11 4.96,3.57 9.48,7.75 13.44,12.41 1.49,1.76 3.07,5.07 5.73,4.07 1.91,-0.72 3.98,-3.05 5.76,-4.97 0.64,-0.68 1.23,-1.32 1.77,-1.81 2.03,-1.86 4.07,-3.74 5.75,-5.93 C -3.37,7.59 -2.03,4.88 -0.69,2.2 -0.34,1.51 0.01,0.78 0,0"
             style="fill:#db4646;fill-opacity:1;fill-rule:nonzero;stroke:none"
             id="path4227"
             inkscape:connector-curvature="0" /></g><g
           id="g4229"
           transform="translate(192.59,271.3249)"><path
             d="m 0,0 c -0.03,-1.35 -1.14,-2.42 -2.24,-3.22 -2.92,-2.15 -6.61,-4.11 -7.33,-7.66 -0.18,-0.88 -0.15,-1.79 -0.13,-2.69 0.15,-5.78 -0.06,-11.57 -0.62,-17.32 -0.92,0.92 -1.6,2.1 -2.01,3.34 -0.67,2.01 -0.74,4.17 -0.81,6.29 -0.12,3.58 -0.23,7.17 -0.35,10.76 -0.05,1.64 -0.11,3.33 -0.73,4.85 -1.18,2.96 -4.33,5.19 -4.28,8.37 0.03,2.2 1.63,4.03 2.52,6.05 0.98,2.22 0.45,4.03 0.61,6.27 0.11,1.58 1.28,2.31 2.65,2.67 0.64,-0.68 1.23,-1.32 1.77,-1.81 2.03,-1.86 4.07,-3.74 5.75,-5.93 C -3.37,7.59 -2.03,4.88 -0.69,2.2 -0.34,1.51 0.01,0.78 0,0"
             style="fill:#c13636;fill-opacity:1;fill-rule:nonzero;stroke:none"
             id="path4231"
             inkscape:connector-curvature="0" /></g><g
           id="g4233"
           transform="translate(222.82,282.1252)"><path
             d="m 0,0 c -0.66,-1.29 -2.36,-1.65 -3.8,-1.51 -1.45,0.14 -2.88,0.62 -4.32,0.42 0.24,-1.83 0.4,-3.93 -0.87,-5.26 -0.36,-0.37 -0.82,-0.67 -1.03,-1.13 -0.2,-0.43 -0.16,-0.92 -0.3,-1.37 -0.5,-1.58 -2.84,-1.81 -3.6,-3.29 -0.25,-0.5 -0.29,-1.07 -0.51,-1.59 -0.37,-0.88 -1.14,-1.38 -2.05,-1.62 -1.12,-0.3 -2.47,-0.22 -3.62,0.01 -4.76,0.93 -9.34,2.54 -13.86,4.31 -0.94,0.36 -1.87,0.74 -2.8,1.11 -2.09,0.83 -4.36,1.53 -6.26,2.75 -1,0.64 -1.88,1.52 -2.32,2.62 -0.56,1.43 -0.33,3.03 -0.11,4.55 0.09,0.62 0.17,1.3 -0.14,1.85 -0.55,0.99 -1.53,0.39 -2.34,0.23 -0.97,-0.19 -1.94,0.09 -2.67,0.77 -2.43,2.3 -1.99,6.23 -1.55,9.17 0.15,1 0.32,2 0.83,2.89 1.34,2.36 4.42,2.3 6.64,1.46 0.83,-0.32 1.65,-0.63 2.47,-0.98 0.6,-0.26 1.2,-0.54 1.8,-0.82 0.79,1.52 1.67,3.04 2.63,4.52 2.1,3.28 4.54,6.42 7.07,9.22 1.52,1.69 3.15,3.31 5.07,4.51 3.27,2.04 7.17,2.75 10.96,3.42 2.47,0.44 4.99,0.88 7.47,0.51 2.48,-0.38 4.96,-1.72 6.04,-3.98 0.54,-1.14 0.7,-2.43 0.78,-3.69 C 0.03,22.72 -4.04,17.34 -3.72,10.97 -3.62,9.02 -2.99,7.1 -1.91,5.48 -0.77,3.78 0.92,1.82 0,0"
             style="fill:#fe6361;fill-opacity:1;fill-rule:nonzero;stroke:none"
             id="path4235"
             inkscape:connector-curvature="0" /></g><g
           id="g4237"
           transform="translate(206.34,266.7751)"><path
             d="m 0,0 c -1.12,-0.3 -2.47,-0.22 -3.62,0.01 -4.76,0.93 -9.34,2.54 -13.86,4.31 -0.94,0.36 -1.87,0.74 -2.8,1.11 -2.09,0.83 -4.36,1.53 -6.26,2.75 -1,0.64 -1.88,1.52 -2.32,2.62 -0.56,1.43 -0.33,3.03 -0.11,4.55 0.09,0.62 0.17,1.3 -0.14,1.85 -0.55,0.99 -1.53,0.39 -2.34,0.23 -0.97,-0.19 -1.94,0.09 -2.67,0.77 -2.43,2.3 -1.99,6.23 -1.55,9.17 0.15,1 0.32,2 0.83,2.89 1.34,2.36 4.42,2.3 6.64,1.46 0.83,-0.32 1.65,-0.63 2.47,-0.98 0.6,-0.26 1.2,-0.54 1.8,-0.82 0.79,1.52 1.67,3.04 2.63,4.52 2.23,-0.19 5.64,0.23 6.48,-1.64 1.18,-2.62 -1.52,-7.28 -2.43,-9.67 -1.21,-3.17 -1.94,-6.98 0,-9.76 1.21,-1.74 3.23,-2.7 5.16,-3.58 C -9.8,8.74 -7.51,7.68 -5.22,6.63 -2.86,5.55 -0.17,4.04 0.12,1.46 0.18,0.96 0.13,0.47 0,0"
             style="fill:#ea5757;fill-opacity:1;fill-rule:nonzero;stroke:none"
             id="path4239"
             inkscape:connector-curvature="0" /></g></g></g><g
       id="g4241"
       transform="translate(-28.891511,-103.18397)"><g
         id="g4243"><g
           id="g4249"><g
             id="g4251"><path
               d="m 171.134,334.065 c -2.719,-1.944 -5.437,-3.888 -8.156,-5.833 v 0 c -2.141,-1.531 -4.454,-3.326 -4.898,-5.92 v 0 c -0.476,-2.784 1.394,-5.472 1.379,-8.298 v 0 c -0.007,-1.614 -0.631,-3.153 -1.146,-4.684 v 0 c -1.304,-3.875 -1.959,-8.105 -0.907,-12.056 v 0 c 1.051,-3.952 4.073,-7.545 8.066,-8.422 v 0 c 2.019,-0.443 4.542,0.083 5.355,1.983 v 0 c 0.817,1.912 -0.299,4.662 1.382,5.887 v 0 c 1.702,1.241 6.508,1.187 8.227,0.015 v 0 c 2.139,-1.459 2.63,-3.225 5.531,-3.897 v 0 c 6.608,-1.529 13.864,1.056 19.864,3.623 v 0 c 3.073,1.314 6.162,2.814 8.474,5.229 v 0 c 3.977,4.153 4.994,10.232 7.433,15.44 v 0 c 0.477,1.021 1.024,2.048 1.114,3.172 v 0 c 0.128,1.611 -0.701,3.14 -1.635,4.459 v 0 c -2.913,4.118 -7.017,7.213 -11.053,10.24 v 0 c -4.892,3.667 -10.102,7.465 -16.179,8.14 v 0 c -0.666,0.074 -1.329,0.109 -1.986,0.109 v 0 c -7.579,10e-4 -14.583,-4.695 -20.865,-9.187"
               style="fill:url(#linearGradient4263);stroke:none"
               id="path4265"
               inkscape:connector-curvature="0" /></g></g></g></g><g
       id="g4267"
       transform="translate(-28.891511,-103.18397)"><g
         id="g4269"
         clip-path="url(#clipPath4273)"><g
           id="g4275"
           transform="translate(156.1422,326.6818)"><path
             d="m 0,0 c -1.039,-0.575 -1.706,-1.673 -2.02,-2.818 -0.314,-1.144 -0.319,-2.348 -0.321,-3.535 -0.002,-0.804 0.007,-1.65 0.405,-2.349 0.757,-1.331 2.549,-1.579 4.08,-1.576 0.506,0.001 1.024,0.015 1.498,0.194 1.452,0.551 1.918,2.35 2.078,3.895 0.167,1.613 0.95,5.246 -0.534,6.357 C 4.151,0.942 0.984,0.544 0,0"
             style="fill:#fe6361;fill-opacity:1;fill-rule:nonzero;stroke:none"
             id="path4277"
             inkscape:connector-curvature="0" /></g></g></g><g
       id="g4279"
       transform="translate(-28.891511,-103.18397)"><g
         id="g4281"><g
           id="g4287"><g
             id="g4289"><path
               d="m 145.633,328.919 c -1.697,-0.305 -3.294,-1.023 -4.798,-1.864 v 0 C 133.99,323.232 128.731,316.663 126.5,309.148 v 0 c -1.306,-4.401 -1.6,-9.027 -2.062,-13.594 v 0 c -1.025,-10.129 -3.254,-20.837 -10.433,-28.055 v 0 c -1.055,-1.059 -2.22,-2.05 -2.949,-3.355 v 0 c -1.053,-1.887 -1.052,-4.193 -0.656,-6.317 v 0 c 0.305,-1.629 0.85,-3.263 1.927,-4.524 v 0 c 1.943,-2.276 5.359,-2.901 8.237,-2.082 v 0 c 2.877,0.819 5.267,2.859 7.169,5.169 v 0 c 0.828,1.005 1.601,2.089 2.672,2.828 v 0 c 1.071,0.74 2.547,1.069 3.676,0.422 v 0 c 1.132,-0.649 1.578,-2.027 2.35,-3.08 v 0 c 1.203,-1.638 3.259,-2.486 5.285,-2.647 v 0 c 2.026,-0.162 4.048,0.285 6.013,0.806 v 0 c 1.99,0.528 3.997,1.153 5.684,2.333 v 0 c 3.455,2.414 5.041,6.837 5.114,11.051 v 0 c 0.074,4.215 -1.141,8.329 -2.256,12.394 v 0 c -1.115,4.064 -2.151,8.259 -1.709,12.45 v 0 c 0.572,5.427 3.59,10.785 2.189,16.06 v 0 c -0.577,2.175 -1.901,4.308 -1.435,6.511 v 0 c 0.682,3.237 2.667,7.366 0.607,10.622 v 0 c -1.4,2.213 -4.954,2.976 -7.866,2.976 v 0 c -0.896,0 -1.732,-0.072 -2.424,-0.197"
               style="fill:url(#linearGradient4301);stroke:none"
               id="path4303"
               inkscape:connector-curvature="0" /></g></g></g></g><g
       id="g4305"
       transform="translate(-28.891511,-103.18397)"><g
         id="g4307"
         clip-path="url(#clipPath4311)"><g
           id="g4313"
           transform="translate(214.9699,126.6247)"><path
             d="M 0,0 C -2.24,-0.01 -4.46,-0.529 -6.54,-1.359 -6.62,-1.39 -6.69,-1.42 -6.77,-1.46 c -2.81,-1.149 -5.43,-2.859 -8.4,-3.489 -5.33,-1.131 -10.87,1.349 -16.27,0.599 -1.88,-0.259 -3.69,-0.91 -5.48,-1.56 0.2,4.12 5.34,6.57 5.84,10.671 0.29,2.409 -1.18,4.75 -3.12,6.219 -1.94,1.46 -4.3,2.241 -6.57,3.09 -2.28,0.85 -4.59,1.85 -6.24,3.64 -0.87,0.95 -1.52,2.091 -2.31,3.11 -1.13,1.47 -2.54,2.72 -4.13,3.651 0.04,1.989 2.39,2.939 4.29,3.54 3.69,1.159 6.95,3.439 10.64,4.51 3.99,1.149 8.16,1.229 12.14,2.589 1.42,0.48 3.24,0.96 4.24,-0.16 0.37,-0.42 0.53,-0.96 0.59,-1.53 0.05,-0.399 0.05,-0.819 0.06,-1.22 0.12,-4.899 2.18,-9.599 4.96,-13.649 0.83,-1.211 1.74,-2.391 2.64,-3.561 1.1,-1.41 2.19,-2.83 3.29,-4.24 C -7.51,6.74 -4.32,2.65 0,0"
             style="fill:#ae273e;fill-opacity:1;fill-rule:nonzero;stroke:none"
             id="path4315"
             inkscape:connector-curvature="0" /></g><g
           id="g4317"
           transform="translate(214.9699,126.6247)"><path
             d="M 0,0 C -2.24,-0.01 -4.46,-0.529 -6.54,-1.359 -6.62,-1.39 -6.69,-1.42 -6.77,-1.46 c -0.71,0.351 -1.39,0.761 -2.04,1.19 -2.8,1.821 -5.53,4.371 -5.9,7.69 -0.09,0.87 -0.04,1.83 -0.6,2.511 -0.51,0.62 -1.37,0.799 -2.11,1.139 -1.17,0.54 -2.11,1.59 -2.52,2.821 -0.41,1.229 -0.3,2.62 -0.89,3.779 -0.87,1.75 -2.96,2.431 -4.8,3.091 -1.85,0.649 -3.88,1.739 -4.21,3.659 -0.25,1.471 0.63,2.91 1.73,3.92 1.4,1.301 3.15,2.1 4.64,3.28 0.69,0.55 1.29,1.2 1.92,1.8 0.05,-0.399 0.05,-0.819 0.06,-1.22 0.12,-4.899 2.18,-9.599 4.96,-13.649 0.83,-1.211 1.74,-2.391 2.64,-3.561 1.1,-1.41 2.19,-2.83 3.29,-4.24 C -7.51,6.74 -4.32,2.65 0,0"
             style="fill:#9b1e39;fill-opacity:1;fill-rule:nonzero;stroke:none"
             id="path4319"
             inkscape:connector-curvature="0" /></g><g
           id="g4321"
           transform="translate(202.7301,149.7116)"><path
             d="M 0,0 C -0.328,0.458 -0.685,0.901 -0.918,1.413 -1.108,1.829 -1.212,2.281 -1.4,2.698 -1.64,3.231 -2.013,3.695 -2.432,4.104 -4.236,5.862 -6.991,6.58 -9.424,5.926 -10.495,5.638 -11.649,4.857 -11.586,3.75 c 0.047,-0.823 0.777,-1.456 1.544,-1.761 0.194,-0.077 0.411,-0.154 0.513,-0.338 0.082,-0.149 0.065,-0.33 0.056,-0.501 -0.062,-1.282 0.558,-2.578 1.596,-3.334 1.099,-0.8 2.649,-1.064 3.362,-2.222 0.247,-0.403 0.36,-0.871 0.559,-1.3 0.6,-1.295 2.042,-2.146 3.466,-2.051 C 4.639,-7.419 1.637,-2.286 0,0"
             style="fill:#2f88c0;fill-opacity:1;fill-rule:nonzero;stroke:none"
             id="path4323"
             inkscape:connector-curvature="0" /></g><g
           id="g4325"
           transform="translate(155.3034,156.0095)"><path
             d="m 0,0 c 0.126,-2.639 -0.623,-5.312 -2.103,-7.502 -0.771,-1.14 -1.751,-2.19 -2.118,-3.517 -0.436,-1.583 0.082,-3.254 0.596,-4.814 0.449,-1.365 0.994,-2.851 2.243,-3.562 0.747,-0.425 1.635,-0.501 2.493,-0.568 2.738,-0.213 5.532,-0.422 8.197,0.239 1.116,0.277 2.28,0.705 3.382,0.377 2.059,-0.612 2.726,-3.466 4.744,-4.201 0.833,-0.303 1.762,-0.183 2.624,-0.393 2.356,-0.573 3.963,-3.491 6.367,-3.174 1.667,0.219 2.737,2.094 2.563,3.766 -0.174,1.673 -1.278,3.107 -2.524,4.236 -1.129,1.022 -2.408,1.877 -3.785,2.528 -3.451,1.633 -7.691,2.127 -10.119,5.075 -1.435,1.742 -2.088,4.21 -4.033,5.356 -0.829,0.488 -1.982,0.89 -2.031,1.85 -0.03,0.581 0.42,1.094 0.94,1.353 0.52,0.259 1.111,0.328 1.678,0.457 0.622,0.14 2.9,0.731 3.044,1.526 C 12.35,0.095 9.766,-0.417 9.1,-0.423 6.062,-0.449 3.022,-0.309 0,0"
             style="fill:#4cb4d5;fill-opacity:1;fill-rule:nonzero;stroke:none"
             id="path4327"
             inkscape:connector-curvature="0" /></g><g
           id="g4329"
           transform="translate(208.5368,136.5417)"><path
             d="m 0,0 c -0.15,2.022 -0.457,4.091 -1.455,5.857 -0.998,1.766 -2.818,3.186 -4.847,3.202 -0.562,0.004 -1.165,-0.12 -1.552,-0.527 -0.5,-0.528 -0.489,-1.348 -0.393,-2.069 0.184,-1.395 0.6,-2.821 1.566,-3.845 0.954,-1.011 2.423,-1.617 2.908,-2.92 0.148,-0.397 0.188,-0.828 0.321,-1.231 0.293,-0.89 1.706,-2.612 2.824,-2.381 C 0.728,-3.634 0.078,-1.041 0,0"
             style="fill:#4cb4d5;fill-opacity:1;fill-rule:nonzero;stroke:none"
             id="path4331"
             inkscape:connector-curvature="0" /></g><g
           id="g4333"
           transform="translate(260.2897,174.8552)"><path
             d="M 0,0 C -4.54,-1.18 -9.09,-2.37 -13.689,-3.271 -20.12,-4.53 -26.63,-5.25 -33.13,-5.92 c -0.519,-0.05 -1.04,-0.11 -1.559,-0.16 -2.131,-0.22 -4.261,-0.441 -6.381,-0.66 -0.22,1.49 0.25,2.98 0.7,4.42 0.79,2.469 1.58,4.969 2.79,7.27 1.12,2.13 2.581,4.02 4.07,5.9 0.44,0.57 0.861,1.4 1.55,1.68 0.91,0.369 2.51,-0.04 3.47,-0.08 1.85,-0.08 3.7,-0.14 5.551,-0.2 3.339,-0.09 6.69,-0.15 10.04,-0.17 0.849,0 8.46,0.47 8.629,0.05 C -2.67,8.149 -1.239,4.1 0,0"
             style="fill:#fe6361;fill-opacity:1;fill-rule:nonzero;stroke:none"
             id="path4335"
             inkscape:connector-curvature="0" /></g><g
           id="g4337"
           transform="translate(134.4699,138.2653)"><path
             d="m 0,0 c -2.62,0.05 -5.24,0.229 -7.84,0.6 -3.31,0.48 -6.64,1.259 -9.97,0.86 2.24,3.739 4.48,7.47 6.73,11.21 1.54,2.569 3.06,4.96 5.87,5.66 0.66,-0.19 1.24,-0.53 1.66,-1.051 C -2.84,16.42 -2.73,15.22 -2.73,14.1 -2.75,12.31 -3,10.51 -3.48,8.79 -3.82,7.529 -4.29,6.22 -3.93,4.97 -3.52,3.56 -2.17,2.67 -1.17,1.6 -0.71,1.12 -0.32,0.58 0,0"
             style="fill:#f45b5b;fill-opacity:1;fill-rule:nonzero;stroke:none"
             id="path4339"
             inkscape:connector-curvature="0" /></g><g
           id="g4341"
           transform="translate(432.7018,235.5661)"><path
             d="m 0,0 c -2.05,-10.66 -4.99,-21.15 -8.76,-31.33 -1.01,-2.75 -2.11,-5.5 -3.77,-7.91 -2.19,-3.18 -5.289,-5.64 -7.47,-8.821 -1.91,-2.799 -3.04,-6.04 -4.46,-9.12 -8.24,-17.799 -25.97,-29.5 -35.59,-46.58 -3.429,-6.099 -5.82,-12.849 -10.22,-18.29 -1.32,-1.639 -2.879,-3.179 -4.839,-3.929 -3.691,-1.43 -7.731,0.2 -11.311,2.03 1.12,3.96 3.71,7.939 3.521,12.099 -0.061,1.411 -0.451,2.84 -0.161,4.221 0.47,2.18 2.451,3.64 3.991,5.239 4.09,4.241 5.59,10.321 8.96,15.141 4.399,6.29 11.569,9.949 17.329,15.029 5.15,4.561 9.16,10.241 13.11,15.881 1.54,2.199 3.14,4.55 3.311,7.23 0.179,2.71 -1.141,5.429 -0.611,8.089 0.66,3.311 3.84,5.361 6.16,7.811 3.951,4.159 5.621,9.949 6.68,15.58 1.07,5.64 1.68,11.449 4.04,16.68 1.021,2.26 2.42,4.139 4.09,5.66 2.99,0.069 5.97,0.279 8.95,0.64 2.64,0.32 6.09,0.32 7.06,-2.161 C 0.4,2.18 0.21,1.06 0,0"
             style="fill:#b6cbd1;fill-opacity:1;fill-rule:nonzero;stroke:none"
             id="path4343"
             inkscape:connector-curvature="0" /></g><g
           id="g4345"
           transform="translate(282.5084,196.4772)"><path
             d="m 0,0 c -11.972,-2.511 -19.429,-11.46 -22.126,-22.986 -1.118,-4.782 -3.258,-7.748 -7.808,-9.893 -2.526,-1.191 -4.891,-2.346 -6.767,-4.461 -3.822,-4.31 -4.197,-10.04 -4.935,-15.461 -0.81,-5.953 -4.067,-7.987 -9.351,-9.649 -3.096,-0.973 -6.06,-2.085 -8.595,-4.206 -4.662,-3.904 -5.65,-9.537 -7.052,-15.147 -1.128,-4.514 -3.892,-13.14 -10.222,-12.185 -5.648,0.852 -6.733,6.028 -7.541,10.716 -0.918,5.327 -2.087,10.656 -7.784,12.523 -1.226,0.401 -1.751,-1.529 -0.531,-1.929 8.269,-2.71 4.936,-14.228 9.456,-20.016 3.085,-3.952 8.291,-4.104 12.227,-1.27 5.272,3.795 5.879,10.697 7.459,16.457 1.341,4.886 3.665,8.871 8.294,11.283 3.149,1.642 6.743,2.018 9.89,3.62 5.105,2.6 5.443,7.496 6.05,12.623 0.513,4.343 1.648,9.159 5.021,12.236 2.841,2.594 6.837,3.186 9.765,5.624 4.899,4.079 4.188,11.369 6.971,16.694 3.7,7.078 10.354,11.872 18.111,13.499 C 1.791,-1.664 1.258,0.265 0,0"
             style="fill:#ff605d;fill-opacity:1;fill-rule:nonzero;stroke:none"
             id="path4347"
             inkscape:connector-curvature="0" /></g><g
           id="g4349"
           transform="translate(350.9196,191.5651)"><path
             d="m 0,0 c -2.67,-0.061 -5.34,-0.15 -8,-0.271 0.011,0.301 0.03,0.601 0.051,0.881 0.29,4.13 -1.181,8.24 -3.471,11.69 -2.3,3.44 -5.38,6.28 -8.58,8.9 -1.17,0.94 -4.88,2.63 -5.989,3.98 0.319,0.15 0.639,0.299 0.96,0.44 0.41,0.18 0.79,0.33 1.17,0.44 2.54,0.79 4.41,0.11 7.04,-1.371 5.34,-3.009 9.2,-8.119 12.679,-13.029 C -1.689,8.189 0.82,4.17 0,0"
             style="fill:#c13636;fill-opacity:1;fill-rule:nonzero;stroke:none"
             id="path4351"
             inkscape:connector-curvature="0" /></g><g
           id="g4353"
           transform="translate(237.3502,187.1052)"><path
             d="m 0,0 c -0.07,-1.92 -1.16,-3.92 -2.23,-5.62 -2.66,-4.18 -5.3,-8.37 -7.96,-12.55 -0.52,-0.05 -1.04,-0.11 -1.56,-0.16 -2.13,-0.22 -4.26,-0.441 -6.38,-0.66 -0.22,1.49 0.25,2.98 0.7,4.42 0.79,2.469 1.58,4.969 2.79,7.27 1.119,2.13 2.58,4.02 4.07,5.9 0.44,0.57 0.86,1.4 1.549,1.68 C -8.11,0.649 -6.51,0.24 -5.55,0.2 -3.7,0.12 -1.85,0.06 0,0"
             style="fill:#db4646;fill-opacity:1;fill-rule:nonzero;stroke:none"
             id="path4355"
             inkscape:connector-curvature="0" /></g></g></g></g></svg>