<svg xmlns="http://www.w3.org/2000/svg" xmlns:xlink="http://www.w3.org/1999/xlink" viewBox="0 0 1920 200">
  <defs>
    <linearGradient id="linear-gradient" x1="269.69" y1="-331.85" x2="1783.21" y2="614.92" gradientUnits="userSpaceOnUse">
      <stop offset="0" stop-color="#fff"/>
      <stop offset="0.31" stop-color="#fbfbfc"/>
      <stop offset="0.62" stop-color="#efeff3"/>
      <stop offset="0.94" stop-color="#dbdce5"/>
      <stop offset="1" stop-color="#d6d7e1"/>
    </linearGradient>
  </defs>
  <title>Kraujo Banko Baneris</title>
  <g id="Hexagon_background" data-name="Hexagon background">
    <g id="Hektagons">
      <g>
        <polygon points="155.5 125.59 128.26 89.76 155.5 53.93 212.1 53.93 239.34 89.76 212.1 125.59 155.5 125.59" style="fill: #d6d7e1"/>
        <path d="M210.11,57.93l24.2,31.83-24.2,31.83H157.48l-24.2-31.83,24.2-31.83h52.63m4-8H153.52L123.23,89.76l30.29,39.83h60.56l30.28-39.83L214.08,49.93Z" style="fill: #fff"/>
      </g>
      <polygon points="123.12 9.97 62.55 9.97 32.27 49.8 62.55 89.63 123.12 89.63 153.4 49.8 123.12 9.97" style="fill: #a0a0a9;stroke: #fff;stroke-miterlimit: 10"/>
      <g>
        <polygon points="246.32 85.76 219.08 49.93 246.32 14.1 302.92 14.1 330.16 49.93 302.92 85.76 246.32 85.76" style="fill: #d6d7e1"/>
        <path d="M300.93,18.1l24.2,31.83-24.2,31.83H248.3L224.1,49.93,248.3,18.1h52.63m4-8H244.33L214.05,49.93l30.28,39.83H304.9l30.28-39.83L304.9,10.1Z" style="fill: #fff"/>
      </g>
      <path d="M849.46,13.1l28,36.83-28,36.83H791.87l-28-36.83,28-36.83h57.59m1.49-3H790.38L760.1,49.93l30.28,39.83H851l30.28-39.83L851,10.1Z" style="fill: #a0a0a9"/>
      <polygon points="1395.58 10.1 1335.01 10.1 1304.73 49.93 1335.01 89.76 1395.58 89.76 1425.86 49.93 1395.58 10.1" style="fill: #a0a0a9;stroke: #fff;stroke-miterlimit: 10;stroke-width: 10px"/>
      <polygon points="214.08 -29.86 153.52 -29.86 123.23 9.97 153.52 49.8 214.08 49.8 244.36 9.97 214.08 -29.86" style="fill: #a0a0a9;stroke: #fff;stroke-miterlimit: 10"/>
      <polygon points="577.05 -29.86 516.49 -29.86 486.21 9.97 516.49 49.8 577.05 49.8 607.34 9.97 577.05 -29.86" style="fill: #b24f4a"/>
      <path d="M940.13-26.86l28,36.83-28,36.83H882.54L854.54,10l28-36.83h57.59m1.49-3H881.05L850.77,10,881.05,49.8h60.57L971.9,10,941.62-29.86Z" style="fill: #a0a0a9"/>
      <polygon points="1123.4 -29.86 1062.84 -29.86 1032.55 9.97 1062.84 49.8 1123.4 49.8 1153.68 9.97 1123.4 -29.86" style="fill: #d6d7e1"/>
      <polygon points="1485.97 -31.79 1425.41 -31.79 1395.13 8.04 1425.41 47.87 1485.97 47.87 1516.26 8.04 1485.97 -31.79" style="fill: #d6d7e1"/>
      <polygon points="1849.42 -29.86 1788.86 -29.86 1758.57 9.97 1788.86 49.8 1849.42 49.8 1879.7 9.97 1849.42 -29.86" style="fill: #d6d7e1"/>
      <path d="M391.3,57.8l24.2,31.82-24.2,31.83H338.67l-24.2-31.83,24.2-31.82H391.3m4-8H334.71L304.42,89.62l30.29,39.83h60.56l30.28-39.83L395.27,49.8Z" style="fill: #a0a0a9"/>
      <path d="M137.65,186l13.64,17.95-13.64,17.94H108.77L95.13,203.94,108.77,186h28.88m1.49-3H107.29L91.36,203.94l15.93,20.94h31.85l15.92-20.94L139.14,183Z" style="fill: #d6d7e1"/>
      <g>
        <polygon points="64.78 164.92 37.92 129.59 64.78 94.26 120.89 94.26 147.74 129.59 120.89 164.92 64.78 164.92" style="fill: #d6d7e1"/>
        <path d="M118.65,98.76l23.44,30.83-23.44,30.83H67L43.58,129.59,67,98.76h51.64m4.47-9H62.55L32.27,129.59l30.28,39.83h60.57l30.28-39.83L123.12,89.76Z" style="fill: #fff"/>
      </g>
      <path d="M210.61,136.59l25,32.83-25,32.83H157l-25-32.83,25-32.83h53.62m3.47-7H153.52l-30.29,39.83,30.29,39.83h60.56l30.28-39.83-30.28-39.83Z" style="fill: #a0a0a9"/>
      <polygon points="486.24 10.1 425.67 10.1 395.39 49.93 425.67 89.76 486.24 89.76 516.52 49.93 486.24 10.1" style="fill: #d6d7e1;stroke: #fff;stroke-miterlimit: 10"/>
      <path d="M575.57,52.93l28,36.83-28,36.83H518L490,89.76l28-36.83h57.59m1.48-3H516.49L486.21,89.76l30.28,39.83h60.56l30.29-39.83L577.05,49.93Z" style="fill: #eb6863"/>
      <polygon points="486.24 89.76 425.67 89.76 395.39 129.59 406.57 144.3 425.55 144.29 440.2 169.42 486.24 169.42 516.52 129.59 486.24 89.76" style="fill: #a0a0a9;stroke: #fff;stroke-miterlimit: 10"/>
      <polygon points="826.43 102.52 785.22 102.52 764.62 129.62 785.22 156.72 826.43 156.72 847.04 129.62 826.43 102.52" style="fill: #eb6863"/>
      <polygon points="838.4 178.59 790.87 178.59 767.11 209.84 790.87 241.1 838.4 241.1 862.17 209.84 838.4 178.59" style="fill: #a0a0a9"/>
      <polygon points="755.73 146.73 708.2 146.73 684.43 177.99 708.2 209.25 755.73 209.25 779.5 177.99 755.73 146.73" style="fill: #d6d7e1;stroke: #808184;stroke-miterlimit: 10;stroke-width: 4px"/>
      <path d="M668.11,170l30.28,39.83-30.28,39.83H607.55l-30.29-39.83L607.55,170h60.56m7.44-15H600.11l-4.5,5.92-30.29,39.83-6.9,9.08,6.9,9.08,30.29,39.83,4.5,5.92h75.44l4.5-5.92,30.28-39.83,6.91-9.08-6.91-9.08-30.28-39.83-4.5-5.92Z" style="fill: #eb6863"/>
      <path d="M554.59,142l20.74,27.29-20.74,27.28H511.52l-20.75-27.28L511.52,142h43.07m1.49-3H510l-23,30.29,23,30.28h46.05l23-30.28-23-30.29Z" style="fill: #d6d7e1"/>
      <g>
        <polygon points="1064.57 125.95 1036.95 89.62 1064.57 53.3 1121.66 53.3 1149.29 89.62 1121.66 125.95 1064.57 125.95" style="fill: #a0a0a9"/>
        <path d="M1119.93,56.8l25,32.82-25,32.83h-53.62l-25-32.83,25-32.82h53.62m3.47-7h-60.56l-30.29,39.82,30.29,39.83h60.56l30.28-39.83L1123.4,49.8Z" style="fill: #fff"/>
      </g>
      <g>
        <polygon points="973.75 245.44 946.13 209.11 973.75 172.78 1030.85 172.78 1058.47 209.11 1030.85 245.44 973.75 245.44" style="fill: #eb6863"/>
        <path d="M1029.11,176.28l25,32.83-25,32.83H975.49l-25-32.83,25-32.83h53.62m3.47-7H972l-30.29,39.83L972,248.94h60.56l30.28-39.83-30.28-39.83Z" style="fill: #fff"/>
      </g>
      <g>
        <polygon points="883.28 204.61 856.42 169.28 883.28 133.95 939.38 133.95 966.25 169.28 939.38 204.61 883.28 204.61" style="fill: #b24f4a"/>
        <path d="M937.15,138.45l23.44,30.83-23.44,30.83H885.52l-23.44-30.83,23.44-30.83h51.63m4.47-9H881.05l-30.28,39.83,30.28,39.83h60.57l30.28-39.83-30.28-39.83Z" style="fill: #fff"/>
      </g>
      <path d="M940.13,52.8l28,36.82-28,36.83H882.54l-28-36.83,28-36.82h57.59m1.49-3H881.05L850.77,89.62l30.28,39.83h60.57L971.9,89.62,941.62,49.8Z" style="fill: #a0a0a9"/>
      <polygon points="1032.58 89.63 972.02 89.63 941.74 129.45 972.02 169.28 1032.58 169.28 1062.86 129.45 1032.58 89.63" style="fill: #d6d7e1"/>
      <g>
        <polygon points="1337.74 163.95 1311.64 129.62 1337.74 95.29 1392.85 95.29 1418.95 129.62 1392.85 163.95 1337.74 163.95" style="fill: #d6d7e1"/>
        <path d="M1390.13,100.79,1412,129.62l-21.91,28.83h-49.66l-21.92-28.83,21.92-28.83h49.66m5.45-11H1335l-30.29,39.83L1335,169.45h60.56l30.28-39.83-30.28-39.83Z" style="fill: #fff"/>
      </g>
      <polygon points="1395.58 169.45 1335.02 169.45 1304.73 209.28 1335.02 249.11 1395.58 249.11 1425.86 209.28 1395.58 169.45" style="fill: #b24f4a;stroke: #fff;stroke-miterlimit: 10"/>
      <polygon points="1194.15 184.36 1144.92 184.36 1120.3 216.74 1144.92 249.11 1194.15 249.11 1218.77 216.74 1194.15 184.36" style="fill: #d6d7e1;stroke: #fff;stroke-miterlimit: 10"/>
      <polygon points="1209.2 89.79 1151.7 89.79 1122.95 127.61 1151.7 165.42 1209.2 165.42 1237.94 127.61 1209.2 89.79" style="fill: #b24f4a;stroke: #fff;stroke-miterlimit: 10"/>
      <path d="M1302.28,134.62l26.48,34.83-26.48,34.83h-55.6l-26.48-34.83,26.48-34.83h55.6m2.48-5H1244.2l-30.28,39.83,30.28,39.83h60.56L1335,169.45l-30.28-39.83Z" style="fill: #b34f4a"/>
      <polygon points="1654.74 54.53 1608 54.53 1584.63 85.27 1608 116.02 1654.74 116.02 1678.12 85.27 1654.74 54.53" style="fill: #a0a0a9"/>
      <g>
        <polygon points="1597.13 246.49 1579.33 223.08 1597.13 199.67 1634.04 199.67 1651.84 223.08 1634.04 246.49 1597.13 246.49" style="fill: #eb6863"/>
        <path d="M1632.8,202.17l15.89,20.91L1632.8,244h-34.43l-15.9-20.91,15.9-20.91h34.43m2.48-5h-39.39l-19.7,25.91,19.7,25.91h39.39l19.7-25.91-19.7-25.91Z" style="fill: #fff"/>
      </g>
      <path d="M1655.19,134.45l22.5,29.6-22.5,29.59h-47.64l-22.5-29.59,22.5-29.6h47.64m2.48-5h-52.6l-26.3,34.6,26.3,34.59h52.6l26.3-34.59-26.3-34.6Z" style="fill: #b34f4a"/>
      <g>
        <polygon points="1534.66 220.64 1515.35 195.23 1534.66 169.83 1573.56 169.83 1592.88 195.23 1573.56 220.64 1534.66 220.64" style="fill: #eb6863"/>
        <path d="M1573.31,170.33l18.94,24.9-18.94,24.91h-38.4L1516,195.23l18.94-24.9h38.4m.5-1h-39.4l-19.69,25.9,19.69,25.91h39.4l19.69-25.91-19.69-25.9Z" style="fill: #fff"/>
      </g>
      <path d="M1483.49,54.93,1510,89.76l-26.48,34.83h-55.6l-26.48-34.83,26.48-34.83h55.6m2.48-5h-60.56l-30.28,39.83,30.28,39.83H1486l30.28-39.83L1486,49.93Z" style="fill: #d6d7e1"/>
      <g>
        <polygon points="1522.75 161.55 1498.35 129.45 1522.75 97.36 1572.88 97.36 1597.28 129.45 1572.88 161.55 1522.75 161.55" style="fill: #b24f4a"/>
        <path d="M1571.64,99.86l22.5,29.59-22.5,29.6H1524l-22.5-29.6L1524,99.86h47.65m2.48-5h-52.61l-26.3,34.59,26.3,34.6h52.61l26.3-34.6-26.3-34.59Z" style="fill: #fff"/>
      </g>
      <polygon points="1490.96 114.1 1412.93 114.1 1373.91 165.42 1412.93 216.74 1490.96 216.74 1529.98 165.42 1490.96 114.1" style="fill: #a0a0a9;stroke: #fff;stroke-miterlimit: 10"/>
      <g>
        <polygon points="1789.6 128 1760.46 89.67 1789.6 51.34 1848.68 51.34 1877.82 89.67 1848.68 128 1789.6 128" style="fill: #d6d7e1"/>
        <path d="M1847.93,52.84l28,36.83-28,36.83h-57.59l-28-36.83,28-36.83h57.59m1.49-3h-60.56l-30.29,39.83,30.29,39.83h60.56l30.28-39.83-30.28-39.83Z" style="fill: #fff"/>
      </g>
      <g>
        <polygon points="1698.64 88.17 1669.49 49.84 1698.64 11.51 1757.71 11.51 1786.85 49.84 1757.71 88.17 1698.64 88.17" style="fill: #d6d7e1"/>
        <path d="M1757,13l28,36.83-28,36.83h-57.59l-28-36.83,28-36.83H1757m1.49-3h-60.57l-30.28,39.83,30.28,39.83h60.57l30.28-39.83L1758.46,10Z" style="fill: #fff"/>
      </g>
      <polygon points="1758.46 169.33 1697.89 169.33 1667.61 209.16 1697.89 248.99 1758.46 248.99 1788.74 209.16 1758.46 169.33" style="fill: #a0a0a9;stroke: #fff;stroke-miterlimit: 10;stroke-width: 2px"/>
      <path d="M1756,94.67l26.48,34.83L1756,164.33h-55.61l-26.48-34.83,26.48-34.83H1756m2.48-5h-60.57l-30.28,39.83,30.28,39.83h60.57l30.28-39.83-30.28-39.83Z" style="fill: #d6d7e1"/>
      <path d="M421.09,151.78l56.17,97.29-56.17,97.3H308.74l-56.18-97.3,56.18-97.29H421.09m4-7H304.69L244.48,249.07l60.21,104.3H425.13l60.22-104.3L425.13,144.78Z" style="fill: #b24f4a"/>
    </g>
  </g>
  <g id="Layer_10" data-name="Layer 10">
    <rect y="-0.07" width="1920" height="200.07" style="opacity: 0.95;fill: url(#linear-gradient)"/>
  </g>
</svg>
