<?xml version="1.0" encoding="UTF-8" standalone="no"?>
<svg
   xmlns:dc="http://purl.org/dc/elements/1.1/"
   xmlns:cc="http://creativecommons.org/ns#"
   xmlns:rdf="http://www.w3.org/1999/02/22-rdf-syntax-ns#"
   xmlns:svg="http://www.w3.org/2000/svg"
   xmlns="http://www.w3.org/2000/svg"
   viewBox="0 0 1333.3333 1066.6667"
   height="1066.6667"
   width="1333.3333"
   xml:space="preserve"
   id="svg2"
   version="1.1"><metadata
     id="metadata8"><rdf:RDF><cc:Work
         rdf:about=""><dc:format>image/svg+xml</dc:format><dc:type
           rdf:resource="http://purl.org/dc/dcmitype/StillImage" /></cc:Work></rdf:RDF></metadata><defs
     id="defs6" /><g
     transform="matrix(1.3333333,0,0,-1.3333333,0,1066.6667)"
     id="g10"><g
       transform="scale(0.1)"
       id="g12"><path
         id="path14"
         style="fill:#ffffff;fill-opacity:1;fill-rule:nonzero;stroke:none"
         d="M 0,0 H 10000 V 8000 H 0 Z" /><path
         id="path16"
         style="fill:#f6eaea;fill-opacity:1;fill-rule:nonzero;stroke:none"
         d="m 8098.75,546.32 c -53.06,0 -106.4,2.34 -160.35,8.051 -206.14,21.82 -415.08,32.731 -620.18,63.879 -470.72,71.512 -941.66,75.73 -1415.8,75.73 -188.29,0 -376.59,2 -564.84,2 -274.03,0 -547.93,-4.23 -821.41,-24.988 -426.77,-32.422 -854.24,-37.57 -1281.78,-37.57 -64.41,0 -128.83,0.109 -193.24,0.269 -4.14,0.008 -8.28,0.02 -12.43,0.02 -236.69,0 -472.44,-16.539 -708.77,-28.231 -237.37,-11.738 -468.21,-31.031 -704.2,-31.031 -21.3,0 -42.64,0.16 -64.03,0.492 -235.82,3.68 -594.884,81.641 -763.118,280.329 -99.891,118.05 -86.352,402.07 13.691,515.88 43.699,49.73 114.141,88.67 171.691,112.37 163.936,67.49 330.756,67.65 502.056,69.06 2.1,0.02 4.21,0.02 6.31,0.02 118.2,0 241.09,-27.04 354.37,-64.59 103.07,-34.17 208.38,-46.15 313.21,-67.42 85.78,-17.42 177.56,-25.75 268.33,-25.75 59.05,0 117.7,3.53 173.94,10.39 152.2,18.55 305.49,27.18 458.14,41.8 189.55,18.16 375.06,57.53 563.94,78.62 94.56,10.57 186.94,36.76 281.28,48.68 250.23,31.58 500.9,38.41 751.57,39.25 20.62,0.07 41.23,0.1 61.85,0.1 119.04,0 238.09,-1 357.07,-1.01 97.09,0 194.12,0.33 291.16,0.33 331.72,0 663.14,-3.87 993.96,-38.01 102.54,-10.58 204.42,-4.18 305.53,-29.35 101.51,-25.28 203.99,-48.34 308.01,-52.85 89.02,-3.85 178.31,-5.12 267.7,-5.12 158.89,0 318.08,4.01 476.45,4.66 15.88,0.07 37.99,0.18 65.41,0.18 354.66,0 1589.67,-18.5 1501.07,-392.49 C 9241.29,956.309 9043.35,769.262 8932.32,709.051 8792.06,632.992 8638.67,587.992 8484.28,572.82 c -130.14,-12.781 -257.03,-26.5 -385.53,-26.5" /><path
         id="path18"
         style="fill:#efbfa5;fill-opacity:1;fill-rule:nonzero;stroke:none"
         d="m 3209.85,1479.02 v -349.81 h 125.71 l 60.12,393.54 -185.83,-43.73" /><path
         id="path20"
         style="fill:#efbfa5;fill-opacity:1;fill-rule:nonzero;stroke:none"
         d="m 3925.01,1548.14 68.12,-440.21 147.44,6.33 -18.97,442.32 -196.59,-8.44" /><path
         id="path22"
         style="fill:#8cabef;fill-opacity:1;fill-rule:nonzero;stroke:none"
         d="M 3149.72,2758.03 V 1451.7 l 262.36,10.93 147.58,770.68 175.25,713.87 -585.19,-189.15" /><path
         id="path24"
         style="fill:#8cabef;fill-opacity:1;fill-rule:nonzero;stroke:none"
         d="m 4142.55,2999.56 32.7,-1477.68 -295.15,0.82 -64.17,513.96 -269.89,870.97 596.51,91.93" /><path
         id="path26"
         style="fill:#3b3387;fill-opacity:1;fill-rule:nonzero;stroke:none"
         d="m 3385.91,4678.83 c -2.25,-0.83 -4.48,-1.68 -6.7,-2.54 -106.2,-41.31 -189.59,-226.69 -237.37,-335.62 -123.37,-281.19 -177.26,-574.21 -187.05,-884.96 -5.28,-167.32 -3.3,-334.92 2.01,-502.35 1.47,-46.26 41.57,-460.39 21.07,-470.28 210.35,101.45 424.23,197.27 648.16,255.18 223.92,57.91 459.49,76.95 685.67,24.19 -68.79,525.69 -168.49,1060.57 -312.28,1568.52 -17.19,60.75 -28.69,125.51 -54.18,183.09 -29.36,66.31 -73.41,85.89 -129.08,125.09 -19.08,13.43 -38.29,26.94 -59.26,36.31 -110.5,49.36 -259.12,44.83 -370.99,3.37" /><path
         id="path28"
         style="fill:#eff5f1;fill-opacity:1;fill-rule:nonzero;stroke:none"
         d="m 4177.43,3005.77 c -280.05,-42.76 -746.06,-75.41 -1026.11,-118.17 -15.09,506.35 34.77,1091.09 156.94,1581.1 22.16,88.87 54.89,184.81 132.54,230.08 83.2,48.51 259.67,41.92 310.44,-52.3 74.29,-137.84 88.95,-357.27 122.09,-510.67 74.99,-347.09 257.65,-777.9 304.1,-1130.04" /><path
         id="path30"
         style="fill:#efbfa5;fill-opacity:1;fill-rule:nonzero;stroke:none"
         d="m 3731.75,5058.49 c -41.6,206.08 -299.24,167.29 -371.25,-0.86 -47.44,-110.76 21.4,-273.17 132.91,-320.24 -6.82,-28.17 -12.46,-56.63 -16.84,-85.28 31.57,-1.76 63.15,-3.53 94.72,-5.29 9.77,-0.55 21.24,-0.35 27.09,7.5 3.54,4.75 3.92,11.07 4.18,16.99 0.85,19.96 1.71,39.93 2.56,59.89 2.4,0.71 4.8,1.46 7.21,2.28 59.78,20.43 102.59,76.51 119.84,137.29 17.25,60.78 12.08,125.79 -0.42,187.72" /><path
         id="path32"
         style="fill:#353a85;fill-opacity:1;fill-rule:nonzero;stroke:none"
         d="m 3705.84,5002.11 c 32.62,-62.07 12.44,-137.25 -5.55,-201.63 -15.94,-57.08 -18.79,-93.4 46.09,-97.48 36.55,-2.3 101.54,-7.12 128.03,24.92 20.05,24.28 -3.44,85.23 -18.92,108.44 -11.83,17.72 -36.44,23.68 -47.79,41.71 -4.68,7.43 -6.62,16.23 -8.16,24.87 -6.28,35.32 -7.19,71.58 -2.69,107.17 3.06,24.16 8.61,48.31 6.75,72.6 -2.69,35.21 -33.87,71.66 -52,101.45 -33.72,55.43 -130.32,121.38 -192.66,63.32 -14.19,-13.22 -20.53,-32.67 -25.42,-51.44 -2.92,-11.21 -5.54,-22.84 -3.8,-34.29 6.92,-45.66 49.79,-46.54 82.08,-63.52 39.82,-20.95 73.23,-56.51 94.04,-96.12" /><path
         id="path34"
         style="fill:#353a85;fill-opacity:1;fill-rule:nonzero;stroke:none"
         d="m 3376.73,4937.24 c 2.67,-32.69 25.48,-65.8 12.18,-95.78 -5.92,-13.37 -17.99,-22.77 -27.7,-33.69 -26.54,-29.82 -35.56,-74.18 -22.78,-112 -65.03,-8.08 -130.05,-16.18 -195.08,-24.26 -9.8,-1.22 -20.11,-2.38 -29.27,1.31 -19.6,7.88 -24.64,32.77 -26.89,53.77 -4.43,41.35 -8.27,85.77 11.99,122.09 9.39,16.84 23.43,30.73 32.77,47.6 44.92,81.14 -31.19,198.23 27.95,269.66 26.39,31.87 70.72,41.17 105.9,62.97 61.33,38 93.4,113.27 157.07,147.21 120.25,64.11 269.02,-70.95 212.13,-196.76 -46.4,-102.6 -269.06,-110.45 -258.27,-242.12" /><path
         id="path36"
         style="fill:#3b3387;fill-opacity:1;fill-rule:nonzero;stroke:none"
         d="m 3393.82,4663.71 c 0,0 -89.09,-1257.29 106.13,-1505.2 195.22,-247.91 278.72,-341.32 278.72,-341.32 l -798.39,-332.45 c 0,0 -202.23,1732.66 413.54,2178.97" /><path
         id="path38"
         style="fill:#353a85;fill-opacity:1;fill-rule:nonzero;stroke:none"
         d="m 3209.85,1162.01 -131.18,-131.18 65.59,-65.6 196.77,120.26 v 85.97 l -131.18,-9.45" /><path
         id="path40"
         style="fill:#353a85;fill-opacity:1;fill-rule:nonzero;stroke:none"
         d="m 3981.38,1183.89 157.08,-20.49 142.15,-125.2 -91.44,-36.74 -205.09,62.32 -2.7,120.11" /><path
         id="path42"
         style="fill:#292949;fill-opacity:1;fill-rule:nonzero;stroke:none"
         d="m 8163.93,1161.72 2.15,-22.43 7.16,-74.45 150.71,-64.56 64.61,79.39 -78.92,69.5 -7.28,3.12 -0.88,-9.26 -137.55,18.69" /><path
         id="path44"
         style="fill:#babcbe;fill-opacity:1;fill-rule:nonzero;stroke:none"
         d="m 8156.27,1162.75 7.66,-1.03 -4.99,52.01 143.42,-61.44 119.31,1256.67 14.69,59.36 c -112.76,-1.65 -246.74,-3.34 -381.75,-4.4 l 101.66,-1301.17" /><path
         id="path46"
         style="fill:#909497;fill-opacity:1;fill-rule:nonzero;stroke:none"
         d="m 8163.93,1161.72 137.55,-18.69 0.88,9.26 -143.42,61.44 4.99,-52.01" /><path
         id="path48"
         style="fill:#babcbe;fill-opacity:1;fill-rule:nonzero;stroke:none"
         d="m 7553.62,2464.58 27.75,-328.95 278.22,-852.82 135.94,18.07 2.21,-16.67 0.78,0.11 -100.18,878.88 85.78,300.23 c -157.79,-0.98 -312.11,-0.94 -430.5,1.15" /><path
         id="path50"
         style="fill:#292949;fill-opacity:1;fill-rule:nonzero;stroke:none"
         d="m 7859.59,1282.81 -8.55,-1.13 -62.18,-85.34 82.31,-66.14 134.43,94.95 -7.86,59.06 -132.84,-17.66 -5.31,16.26" /><path
         id="path52"
         style="fill:#3e3d3b;fill-opacity:1;fill-rule:nonzero;stroke:none"
         d="m 7859.59,1282.81 5.31,-16.26 132.84,17.66 -2.21,16.67 -135.94,-18.07" /><path
         id="path54"
         style="fill:#e0e0e1;fill-opacity:1;fill-rule:nonzero;stroke:none"
         d="m 8496.44,4377.19 c 17.47,-82.3 82.6,-142.66 146.2,-199.81 -46.93,120.34 -95.62,226.42 -142.43,318.02 -8.4,-39.36 -12.16,-78.68 -3.77,-118.21" /><path
         id="path56"
         style="fill:#474ebb;fill-opacity:1;fill-rule:nonzero;stroke:none"
         d="m 8743.91,3815.22 c -16.19,-16.77 -35.19,-31.04 -55.67,-41.99 -52.15,-27.88 -112.61,-36.65 -171.76,-36.56 -47.33,0.08 -95.33,5.46 -141.57,-4.68 -46.23,-10.12 -92.03,-40.24 -103.71,-86.11 -6.45,-25.31 -4.35,-57.11 -26.23,-71.39 -10.26,-6.69 -23.22,-7.25 -35.48,-7.61 -37.45,-1.06 -79.98,-0.09 -105.13,27.68 -38.93,42.99 -16.2,129.22 -68.78,153.66 -15.41,7.16 -33.21,6.06 -49.96,8.89 -71.17,12.04 -105.97,92.55 -99.14,166.45 1.43,15.32 4.58,30.36 9.63,44.43 29.4,82.03 97.54,142.9 149.13,213.11 100.75,137.09 168.85,320.25 106.91,482.48 -5.83,15.27 -12.36,30.59 -16.43,46.34 -2.23,8.66 -3.75,17.45 -3.91,26.43 -0.9,48.39 35.09,88.23 58.38,130.66 2.16,3.96 4.21,8.13 6.14,12.51 4.7,10.7 8.62,22.64 11.86,35.45 l -10.12,-4.83 c -23.07,-19.65 -49.92,-33.19 -79.65,-37.96 l -279.07,-133 -111.96,-455.69 -76.77,-312.54 -1.14,-4.61 -288.62,-1493.06 c 34.37,-4.37 103.32,-7.13 192.76,-8.7 118.39,-2.09 272.71,-2.13 430.5,-1.15 23.46,0.14 46.98,0.3 70.49,0.5 135.01,1.05 268.99,2.74 381.75,4.39 172.85,2.52 295.77,4.96 295.77,4.96 0,0 105.03,771.63 11.78,1341.94" /><path
         id="path58"
         style="fill:#e1cfb5;fill-opacity:1;fill-rule:nonzero;stroke:none"
         d="m 8118.42,4872.18 c 29.73,4.77 56.59,18.31 79.65,37.96 l -79.65,-37.96" /><path
         id="path60"
         style="fill:#f4c7b3;fill-opacity:1;fill-rule:nonzero;stroke:none"
         d="m 8131.64,5279.97 c -29.79,26.27 -63.84,31.03 -101.81,31.32 -17.94,0.13 -23.93,-4.51 -33.19,-2.88 -4.15,0.73 -8.96,2.72 -15.82,6.99 -13.58,8.46 -25.7,30.6 -32.07,48.64 -35.21,-22.26 -60.82,-62.48 -67.88,-123.72 -7.68,-66.58 -7.56,-136.82 15.26,-203.43 22.83,-66.62 71.52,-129.26 134.7,-153.98 3.68,-1.44 7.33,-2.7 10.97,-3.89 27.07,-8.83 52.77,-10.66 76.62,-6.84 l 79.65,37.96 c 3.95,3.37 7.8,6.92 11.53,10.64 26.17,113.32 -2.19,292.38 -77.96,359.19" /><path
         id="path62"
         style="fill:#292949;fill-opacity:1;fill-rule:nonzero;stroke:none"
         d="m 8129.98,5359.46 c 9.79,-4.93 19.42,-10.52 28.82,-16.75 -9.4,6.23 -19.03,11.82 -28.82,16.75 z M 8668.81,4153.8 c -8.6,7.83 -17.37,15.67 -26.17,23.58 5.79,-14.85 11.55,-29.9 17.28,-45.17 5.73,-15.28 11.43,-30.76 17.08,-46.48 3.64,-10.12 7.17,-20.42 10.59,-30.87 -3.42,10.45 -6.95,20.75 -10.59,30.87 -5.65,15.72 -11.35,31.2 -17.08,46.48 -5.73,15.27 -11.49,30.32 -17.28,45.17 -63.6,57.15 -128.73,117.51 -146.2,199.81 -8.39,39.53 -4.63,78.85 3.77,118.21 13.5,63.26 39.05,126.64 45.72,191.24 11.42,110.64 2.41,269.7 -24.61,377.94 -28.88,115.74 -91.86,220.46 -167.4,311.67 -91.64,110.63 -262.01,234.5 -382.66,89.61 -1.4,-1.67 -2.73,-3.37 -4.03,-5.11 -13.12,6.56 -26.85,11.88 -41,15.76 -83.35,-70.21 -104.79,-183.21 -96.05,-287.07 8.76,-104.05 61.28,-221.94 31.64,-325.16 -2.84,-9.87 -6.53,-19.73 -6.45,-29.99 0.08,-10.28 5,-21.36 14.57,-25.08 5.81,-2.26 12.31,-1.49 18.49,-0.69 51,6.58 106.51,15.42 141.11,53.48 5.15,5.67 9.11,11.34 12.26,17.02 -3.64,1.19 -7.29,2.45 -10.97,3.89 -63.17,24.72 -111.88,87.36 -134.7,153.98 -22.82,66.61 -22.94,136.85 -15.26,203.43 7.06,61.24 32.67,101.46 67.88,123.72 6.37,-18.04 18.49,-40.18 32.08,-48.64 6.85,-4.27 11.65,-6.26 15.81,-6.99 9.26,-1.63 15.25,3.01 33.19,2.88 37.97,-0.29 72.02,-5.05 101.81,-31.32 75.77,-66.81 104.12,-245.87 77.96,-359.19 71.44,71.26 100.09,203.64 53.06,302.56 -2.68,5.63 -5.51,11.13 -8.51,16.51 3,-5.38 5.83,-10.88 8.51,-16.51 47.03,-98.92 18.38,-231.3 -53.06,-302.56 -0.45,-1.96 -0.92,-3.9 -1.41,-5.81 -3.23,-12.81 -7.15,-24.75 -11.86,-35.45 -1.93,-4.38 -3.98,-8.55 -6.14,-12.51 -23.29,-42.43 -59.28,-82.27 -58.38,-130.66 0.16,-8.98 1.68,-17.77 3.91,-26.43 4.07,-15.75 10.6,-31.07 16.43,-46.34 61.94,-162.23 -6.16,-345.39 -106.91,-482.48 -51.59,-70.21 -119.73,-131.08 -149.13,-213.11 -5.05,-14.07 -8.21,-29.11 -9.63,-44.43 -6.83,-73.9 27.97,-154.41 99.14,-166.45 16.75,-2.83 34.55,-1.73 49.96,-8.89 52.58,-24.44 29.85,-110.67 68.78,-153.66 25.14,-27.77 67.68,-28.74 105.13,-27.68 12.26,0.36 25.21,0.92 35.48,7.61 21.89,14.28 19.78,46.08 26.23,71.39 11.69,45.87 57.48,75.99 103.72,86.11 46.23,10.14 94.23,4.76 141.56,4.68 59.15,-0.09 119.61,8.68 171.76,36.56 20.47,10.95 39.47,25.22 55.67,41.99 -2.01,12.21 -4.09,24.34 -6.27,36.35 2.18,-12.01 4.27,-24.14 6.27,-36.35 25.05,25.96 43.3,57.97 49.33,93.38 16.1,94.41 -53.59,180.75 -124.43,245.2" /><path
         id="path64"
         style="fill:#f4c7b3;fill-opacity:1;fill-rule:nonzero;stroke:none"
         d="m 7075.74,5080.09 -39.75,71.91 21.15,69.31 -12.41,11.94 -15.33,-14.68 1.09,62.55 -31.7,39.66 -67.47,-3.64 -52.67,-45.81 10.72,-66.61 50.66,-62.21 50.16,-100.8 85.55,38.38" /><path
         id="path66"
         style="fill:#474ebb;fill-opacity:1;fill-rule:nonzero;stroke:none"
         d="m 7068.07,5137.4 -120.23,-30.65 260,-626.01 585.62,-103.21 82.85,341.27 -522.49,62.53 -285.75,356.07" /><path
         id="path68"
         style="fill:#353a85;fill-opacity:1;fill-rule:nonzero;stroke:none"
         d="m 2401.23,2937.6 -50.45,-690.28 -167.03,-1142.8 h -128.42 l -81.12,1054.48 -35.92,853.14 462.94,-74.54" /><path
         id="path70"
         style="fill:#292949;fill-opacity:1;fill-rule:nonzero;stroke:none"
         d="m 2056.07,1119.81 v -69.44 l 138.88,-69.44 69.44,69.44 -69.44,69.44 h -138.88" /><path
         id="path72"
         style="fill:#353a85;fill-opacity:1;fill-rule:nonzero;stroke:none"
         d="m 1491.5,3100.27 48.82,-967.56 111.76,-1110.78 h 131.54 l 106.91,1052.41 156.18,1107.68 -555.21,-81.75" /><path
         id="path74"
         style="fill:#292949;fill-opacity:1;fill-rule:nonzero;stroke:none"
         d="m 1782.87,1037.59 v -71.129 l -142.25,-71.121 -71.13,71.121 71.13,71.129 h 142.25" /><path
         id="path76"
         style="fill:#f4c7b3;fill-opacity:1;fill-rule:nonzero;stroke:none"
         d="m 1939.83,4651.63 c -44.87,4.39 -89.75,8.78 -134.62,13.16 -0.48,35.96 1.91,71.95 7.15,107.52 -37.41,13.11 -80.65,32.77 -87.22,71.86 -2.07,12.31 0.04,24.9 2.15,37.21 8.72,50.88 17.44,101.75 26.16,152.62 3.01,17.6 6.23,35.71 15.77,50.8 16.76,26.47 49.32,38.09 80.18,43.49 78.74,13.78 164.59,-3.17 225.73,-54.68 16.28,-13.7 30.99,-30.19 38.19,-50.21 11.08,-30.88 2.87,-64.96 -5.42,-96.7 -7.65,-29.29 -15.3,-58.59 -22.95,-87.89 -8.8,-33.69 -21.52,-72 -53.95,-84.68 -17.23,-6.73 -37.57,-4.79 -53.16,-14.74 -27.49,-17.54 -23.73,-58.44 -38.01,-87.76" /><path
         id="path78"
         style="fill:#292949;fill-opacity:1;fill-rule:nonzero;stroke:none"
         d="m 2254.93,5171.75 c 3.96,41.59 6.06,75.87 -2.55,116.58 -5.04,23.85 -35.51,98.92 -26.25,120.1 -17.34,-36.74 -64.1,-46.88 -104.53,-50.92 -151.47,-15.12 -320.49,22.33 -459.75,-55.41 -25.43,-14.19 -45.71,-36.35 -61.5,-60.82 -54.72,-84.76 -54.87,-201.54 -0.36,-286.45 12.23,-19.04 26.86,-36.45 42.23,-53.07 31.8,-34.4 69.85,-76.89 113.56,-89.6 0.99,39.09 -34.78,162.28 -4.8,194.37 42.08,45.02 118.61,36.25 173.3,28.46 70.22,-10 138.47,-9.37 209.34,-1.11 22.81,2.66 45.96,5.41 67.15,14.25 50.7,21.19 48.92,68.3 53.47,116.4 0.22,2.31 0.46,4.72 0.69,7.22" /><path
         id="path80"
         style="fill:#f4c7b3;fill-opacity:1;fill-rule:nonzero;stroke:none"
         d="m 991.621,3712.29 -9.609,-84.61 47.698,-58.01 -7.16,-16.36 -20.49,8 25.81,-59.47 -14.67,-50.54 -66.055,-23.23 -68.586,23.03 -16.102,68.04 23.898,79.63 8.137,116.4 97.129,-2.88" /><path
         id="path82"
         style="fill:#5d66d3;fill-opacity:1;fill-rule:nonzero;stroke:none"
         d="m 1006.96,3654.36 -127.276,-18.25 1.179,702.5 740.247,329.64 -3.41,-382.27 -440.57,-163.57 -170.17,-468.05" /><path
         id="path84"
         style="fill:#f4c7b3;fill-opacity:1;fill-rule:nonzero;stroke:none"
         d="m 2530.44,5534.34 4.36,85.04 -51.18,54.96 6.14,16.75 20.94,-6.72 -29.43,57.78 11.52,51.35 64.5,27.26 69.87,-18.76 20.28,-66.91 -18.94,-80.96 -0.93,-116.67 -97.13,-3.12" /><path
         id="path86"
         style="fill:#5d66d3;fill-opacity:1;fill-rule:nonzero;stroke:none"
         d="m 2511.56,5591.21 125.91,26.07 9.97,-484.4 -49.48,-374.38 -321.94,-472.52 -263.6,381.36 306.05,224.92 193.09,698.95" /><path
         id="path88"
         style="fill:#5d66d3;fill-opacity:1;fill-rule:nonzero;stroke:none"
         d="m 2046.43,4686.25 -425.32,-18 -214.69,-817.2 -177.3,-1132.87 1368.84,-33.28 -321.94,1601.08 -229.59,400.27" /><path
         id="path90"
         style="fill:#292949;fill-opacity:1;fill-rule:nonzero;stroke:none"
         d="m 6646.84,1204.23 10.45,-81.34 -152.22,-102.27 -91.81,70.89 70.89,91.8 152.23,102.27 10.46,-81.35" /><path
         id="path92"
         style="fill:#292949;fill-opacity:1;fill-rule:nonzero;stroke:none"
         d="m 6651.98,1231.53 -117.39,1037.41 141.25,1161.37 -31.77,247.04 -630.9,23.97 -22.76,-402.09 105.91,-1031.89 398.46,-1088.81 157.2,53" /><path
         id="path94"
         style="fill:#babcbe;fill-opacity:1;fill-rule:nonzero;stroke:none"
         d="m 5953.95,4849.16 -317.35,-86.44 -367.01,-650.33 173.85,-160.97 244.68,289.75 265.83,607.99" /><path
         id="path96"
         style="fill:#292949;fill-opacity:1;fill-rule:nonzero;stroke:none"
         d="m 5550.24,3585.07 -1.66,-1046.88 210.72,-1347.66 151.68,1.5 83.37,1246.29 195.12,1247.39 -639.23,-100.64" /><path
         id="path98"
         style="fill:#292949;fill-opacity:1;fill-rule:nonzero;stroke:none"
         d="m 5910.74,1128.07 -163.2,-83.65 -82.82,81.2 81.18,82.82 164.02,1.64 0.82,-82.01" /><path
         id="path100"
         style="fill:#babcbe;fill-opacity:1;fill-rule:nonzero;stroke:none"
         d="m 6741.12,3229.02 c -1.44,45.36 -3.96,83.23 -4.32,96.75 -3.26,121.69 -14.09,243.12 -29.33,363.95 -13.65,108.28 -30.89,377.1 -49.41,484.71 -15.31,88.85 -68.63,310.63 -107.14,393.04 -95.8,204.95 -66.2,223.89 -487.01,284.74 -184.44,26.68 -228.03,-88.26 -378.8,-220.44 -14.88,-13.03 -14.06,-90.65 -17.51,-111.2 -6.08,-36.2 -12.58,-72.33 -20.05,-108.3 -5.86,-28.27 -12.34,-56.44 -19.6,-84.44 l 0.02,0.01 c 0,0 -126.58,-576.03 -210.28,-698.37 -83.72,-122.34 -256.65,-293.38 32.63,-397.8 51.26,-16.57 102.84,-32.34 156.21,-40.77 0,0 236.58,26.29 358.25,25.38 112.05,-0.83 224.57,-12.18 334.73,-31.17 73.66,-12.32 148.84,-30.21 214.73,-64.63 62.87,-32.83 108.24,-81.14 172.03,-115.15 6.04,-3.22 12.68,-6.55 19.54,-5.6 36.64,5.07 38.36,133.81 35.31,229.29" /><path
         id="path102"
         style="fill:#d6c7ac;fill-opacity:1;fill-rule:nonzero;stroke:none"
         d="m 5845.77,3925.99 150.47,-37.61 18.88,63.61 -97.35,48.57 22.89,25.94 -132.68,16.49 -28.55,-63.48 66.34,-53.52" /><path
         id="path104"
         style="fill:#454446;fill-opacity:1;fill-rule:nonzero;stroke:none"
         d="m 5810.07,3917.45 39.15,158.02 -373.18,137.68 -206.45,-100.76 63.6,-193.61 476.88,-1.33" /><path
         id="path106"
         style="fill:#f4c7b3;fill-opacity:1;fill-rule:nonzero;stroke:none"
         d="m 6063.42,4794.42 c 21.23,-10.49 71.35,-14.25 123.62,6.22 10.54,4.13 17.65,14.29 17.5,25.61 -0.42,31.75 -2.97,63.47 -7.65,94.88 39.22,13.79 84.53,34.46 91.36,75.46 2.15,12.91 -0.08,26.11 -2.31,39.01 -9.21,53.33 -18.43,106.66 -27.65,159.99 -3.18,18.44 -6.57,37.43 -16.6,53.23 -17.61,27.73 -51.77,39.86 -84.12,45.48 -82.59,14.33 -172.57,-3.56 -236.6,-57.64 -17.04,-14.4 -32.45,-31.7 -39.96,-52.7 -11.59,-32.39 -2.92,-68.11 5.81,-101.38 8.06,-30.71 16.12,-61.41 24.19,-92.12 9.27,-35.31 22.66,-75.46 56.69,-88.7 18.06,-7.03 39.39,-4.98 55.75,-15.38 28.84,-18.35 24.96,-61.24 39.97,-91.96" /><path
         id="path108"
         style="fill:#292949;fill-opacity:1;fill-rule:nonzero;stroke:none"
         d="m 5586.81,5326.25 c -8.12,13.33 -16.86,26.18 -26.63,38.23 -21.18,26.11 -47.27,48.48 -64.31,77.46 -17.04,28.98 -23.04,68.26 -2.59,94.94 13.19,17.22 34.61,25.83 55.42,31.96 68.58,20.18 142.58,21.55 211.86,3.91 65.98,-16.79 125.04,-44.61 191.45,-19.8 62.41,23.3 107.49,13.81 172.72,-9.46 70.58,-25.19 165.34,-31.13 229.23,-66.68 26.67,-14.85 47.96,-38.06 64.57,-63.69 57.49,-88.79 57.8,-211.23 0.78,-300.32 -12.81,-19.99 -28.11,-38.26 -44.2,-55.71 -33.3,-36.11 -73.14,-80.71 -118.94,-94.1 -1.09,40.98 36.23,170.19 4.77,203.78 -49.95,53.3 -162.87,34.7 -224.83,21.58 -67.58,-14.31 -127.82,-62.17 -194.82,-72.39 -48.21,-7.36 -109.74,16.28 -150.74,41.2 -50.59,30.77 -74.14,120.49 -103.74,169.09" /><path
         id="path110"
         style="fill:#babcbe;fill-opacity:1;fill-rule:nonzero;stroke:none"
         d="m 6413.26,4773.45 262.58,-230.07 295.7,-625.93 -436.26,-2.68 -122.02,858.68" /><path
         id="path112"
         style="fill:#d67086;fill-opacity:1;fill-rule:nonzero;stroke:none"
         d="m 5857.97,4715.01 c -334.95,10.55 -745.82,-188.42 -831.8,-478.25 -114.36,279.84 -634.89,429.61 -967.14,385.8 -876.75,-115.6 -1125.81,-1112.19 -719.65,-1753.77 218.6,-345.31 522.78,-641.59 851.65,-904.85 275.39,-220.46 980.38,-682.01 982.37,-680.22 2.16,-1.58 657.75,527.79 909.85,774.55 301.06,294.67 574.25,619.74 757.42,985.08 340.34,678.8 -98.79,1643.85 -982.7,1671.66" /><path
         id="path114"
         style="fill:#eed5d5;fill-opacity:1;fill-rule:nonzero;stroke:none"
         d="m 8570.93,4538.31 c -188.24,5.92 -419.16,-105.9 -467.47,-268.78 -64.28,157.27 -356.82,241.44 -543.54,216.82 -492.74,-64.97 -632.71,-625.05 -404.45,-985.63 122.86,-194.06 293.81,-360.57 478.63,-508.53 154.77,-123.9 550.98,-383.28 552.1,-382.28 1.21,-0.89 369.65,296.62 511.33,435.3 169.2,165.6 322.73,348.3 425.67,553.62 191.27,381.48 -55.51,923.84 -552.27,939.48" /><path
         id="path116"
         style="fill:#d67086;fill-opacity:1;fill-rule:nonzero;stroke:none"
         d="m 2080.97,4440.85 c -142.35,38.14 -338.23,-5.8 -404.13,-121.25 -20.88,131.29 -228.7,247.67 -375.35,262.27 -386.978,38.52 -593.654,-363.15 -484.166,-678.62 58.926,-169.78 159.414,-327.18 273.786,-472.9 95.77,-122.03 351.27,-390.41 352.3,-389.84 0.77,-0.9 334.6,159.94 467.3,240.27 158.47,95.94 308.07,207.69 423.18,345.71 213.85,256.46 122.73,713.72 -252.92,814.36" /><path
         id="path118"
         style="fill:#d67086;fill-opacity:1;fill-rule:nonzero;stroke:none"
         d="m 7324.22,6459.9 c -129.41,-5.91 -281.83,-94.82 -306.33,-209.07 -52.4,104.44 -257.46,146.67 -384.2,119.89 -334.44,-70.65 -400.76,-462.12 -225.14,-697.29 94.53,-126.56 220.57,-231.69 355.14,-323.36 112.7,-76.76 398.13,-233.65 398.84,-232.9 0.88,-0.54 237.77,222.98 327.58,325.58 107.25,122.52 202.86,255.93 262.58,402.18 110.95,271.72 -87.01,630.56 -428.47,614.97" /><path
         id="path120"
         style="fill:#eed5d5;fill-opacity:1;fill-rule:nonzero;stroke:none"
         d="m 3624.09,6850.23 c -157.36,40.31 -372.73,-10.5 -443.96,-138.56 -24.6,144.46 -255.08,270.2 -416.88,284.51 -427,37.76 -649.91,-407.47 -525.4,-753.84 67.01,-186.42 179.67,-358.67 307.5,-517.9 107.04,-133.33 391.91,-426.03 393.04,-425.4 0.86,-0.97 366.84,180.35 512.13,270.51 173.5,107.66 337.03,232.65 462.22,386.18 232.59,285.26 126.6,788.13 -288.65,894.5" /><path
         id="path122"
         style="fill:#3b3387;fill-opacity:1;fill-rule:nonzero;stroke:none"
         d="m 3354.16,4663.71 -242.7,-134.76 -442.73,-759.75 54.66,-147.58 672.29,-306.08 90.8,136.68 -489.55,355.81 344.1,480.43 13.13,375.25" /><path
         id="path124"
         style="fill:#efbfa5;fill-opacity:1;fill-rule:nonzero;stroke:none"
         d="m 3472.02,3430.45 136.83,-60.25 21.87,-158.51 -81.99,-21.87 -124.82,168.2 48.11,72.43" /><path
         id="path126"
         style="fill:#f4c7b3;fill-opacity:1;fill-rule:nonzero;stroke:none"
         d="m 8570.93,4538.31 109.43,71.04 115.22,-60.21 -13.08,-103.57 h -139.86 l -71.71,92.74" /><path
         id="path128"
         style="fill:#f4c7b3;fill-opacity:1;fill-rule:nonzero;stroke:none"
         d="m 6766.32,3899.23 109.44,71.03 115.22,-60.2 -13.08,-103.57 h -139.86 l -71.72,92.74" /><path
         id="path130"
         style="fill:#f4c7b3;fill-opacity:1;fill-rule:nonzero;stroke:none"
         d="m 5436.25,4681.17 109.44,71.04 115.22,-60.21 -13.08,-103.57 h -139.86 l -71.72,92.74" /><path
         id="path132"
         style="fill:#efbfa5;fill-opacity:1;fill-rule:nonzero;stroke:none"
         d="m 3910.07,4599.29 109.44,71.03 115.22,-60.21 -13.08,-103.56 h -139.86 l -71.72,92.74" /></g></g></svg>